<svg xmlns="http://www.w3.org/2000/svg" width="512" height="414" fill="none" viewBox="0 0 512 414">
  <g clip-path="url(#a)">
    <path fill="#fff" fill-opacity=".5" d="m70.331 349.454-1.905-2.25 2.25 1.905c2.115 1.79 2.705 2.595 1.905 2.595-.19 0-1.202-1.012-2.25-2.25Zm370.095.25c.996-1.1 2.035-2 2.31-2 .275 0-.314.9-1.31 2-.995 1.1-2.035 2-2.31 2-.275 0 .315-.9 1.31-2Zm-25.5-17.377c0-.208.788-.996 1.75-1.75 1.586-1.244 1.622-1.209.378.377-1.307 1.666-2.128 2.196-2.128 1.373Zm-275-23c0-.208.788-.996 1.75-1.75 1.586-1.244 1.622-1.209.378.377-1.307 1.666-2.128 2.196-2.128 1.373Zm229.873-1.373c-1.244-1.586-1.209-1.621.377-.377.963.754 1.75 1.542 1.75 1.749 0 .824-.821.294-2.127-1.372Zm-206.468-46.5-1.905-2.25 2.25 1.905c2.115 1.79 2.705 2.595 1.905 2.595-.19 0-1.202-1.012-2.25-2.25Zm131.095-47.75c.996-1.1 2.035-2 2.31-2 .275 0-.314.9-1.31 2-.995 1.1-2.035 2-2.31 2-.275 0 .315-.9 1.31-2Zm-56.627-21.75c-1.244-1.586-1.209-1.621.377-.377.963.754 1.75 1.542 1.75 1.75 0 .823-.821.293-2.127-1.373Zm34.127 1.373c0-.208.788-.996 1.75-1.75 1.586-1.244 1.622-1.209.378.377-1.307 1.666-2.128 2.196-2.128 1.373Zm-205.842-7.623c0-1.375.227-1.937.504-1.25.278.688.278 1.813 0 2.5-.277.688-.504.125-.504-1.25Zm379-1c0-1.375.227-1.937.504-1.25.278.688.278 1.813 0 2.5-.277.688-.504.125-.504-1.25Zm0-12c0-1.375.227-1.937.504-1.25.278.688.278 1.813 0 2.5-.277.688-.504.125-.504-1.25Zm-379-1c0-1.375.227-1.937.504-1.25.278.688.278 1.813 0 2.5-.277.688-.504.125-.504-1.25Zm97.842-76.5c1.292-1.375 2.574-2.5 2.849-2.5.275 0-.557 1.125-1.849 2.5-1.292 1.375-2.573 2.5-2.848 2.5-.276 0 .556-1.125 1.848-2.5Zm160 .123c0-.208.788-.996 1.75-1.75 1.586-1.244 1.622-1.209.378.377-1.307 1.666-2.128 2.196-2.128 1.373ZM140.799 48.953c-1.244-1.586-1.209-1.621.377-.377 1.666 1.306 2.196 2.127 1.373 2.127-.208 0-.996-.787-1.75-1.75Zm228.127 1.373c0-.208.788-.996 1.75-1.75 1.586-1.244 1.622-1.209.378.377-1.307 1.666-2.128 2.196-2.128 1.373Zm46.873-24.373c-1.244-1.586-1.209-1.621.377-.378.963.755 1.75 1.543 1.75 1.75 0 .824-.821.294-2.127-1.372ZM68.926 9.327c0-.208.788-.996 1.75-1.75 1.586-1.244 1.622-1.209.378.377-1.307 1.666-2.128 2.196-2.128 1.373Zm371.405-1.873-1.905-2.25 2.25 1.905c1.238 1.048 2.25 2.06 2.25 2.25 0 .8-.805.21-2.595-1.905Z"/>
    <path fill="#fff" fill-opacity=".5" d="M92.799 328.954c-1.244-1.586-1.209-1.621.377-.377.963.754 1.75 1.542 1.75 1.75 0 .823-.821.293-2.127-1.373Zm-26.715-147.25c0-1.375.227-1.937.504-1.25.278.688.278 1.813 0 2.5-.277.688-.504.125-.504-1.25Zm314.921.417c.048-1.165.285-1.402.604-.604.289.722.253 1.584-.079 1.916-.332.333-.568-.258-.525-1.312Zm64-1c.048-1.165.285-1.402.604-.604.289.722.254 1.584-.079 1.916-.332.333-.568-.258-.525-1.312Zm-378.92-5.417c0-1.375.226-1.937.504-1.25.277.688.277 1.813 0 2.5-.278.688-.505.125-.505-1.25Zm378.92.417c.048-1.165.285-1.402.604-.604.289.722.254 1.584-.079 1.916-.332.333-.568-.258-.525-1.312Zm-63.921-1.417c0-1.375.227-1.937.504-1.25.278.688.278 1.813 0 2.5-.277.688-.504.125-.504-1.25Zm-198.158-55.377c0-.208.788-.996 1.75-1.75 1.586-1.244 1.622-1.209.378.377-1.307 1.666-2.128 2.196-2.128 1.373Zm-91-90c0-.208.788-.996 1.75-1.75 1.586-1.244 1.622-1.209.378.377-1.307 1.666-2.128 2.196-2.128 1.373Zm-20-23c0-.208.788-.996 1.75-1.75 1.586-1.244 1.622-1.209.378.377-1.307 1.666-2.128 2.196-2.128 1.373Zm348 321c0-.208.788-.996 1.75-1.75 1.586-1.244 1.622-1.209.378.377-1.307 1.666-2.128 2.196-2.128 1.373ZM130.084 182.704c0-1.375.227-1.937.504-1.25.278.688.278 1.813 0 2.5-.277.688-.504.125-.504-1.25Zm251-4c0-1.375.227-1.937.504-1.25.278.688.278 1.813 0 2.5-.277.688-.504.125-.504-1.25Zm-251-4c0-1.375.227-1.937.504-1.25.278.688.278 1.813 0 2.5-.277.688-.504.125-.504-1.25Zm290.715-143.75c-1.244-1.586-1.209-1.621.377-.377.963.754 1.75 1.542 1.75 1.75 0 .823-.821.293-2.127-1.373ZM30.084 178.704c0-1.375.227-1.937.505-1.25.277.688.277 1.813 0 2.5-.278.688-.505.125-.505-1.25Zm100 0c0-1.375.227-1.937.504-1.25.278.688.278 1.813 0 2.5-.277.688-.504.125-.504-1.25Zm351 0c0-1.375.227-1.937.505-1.25.277.688.277 1.813 0 2.5-.278.688-.505.125-.505-1.25Zm-451 4c0-1.375.227-1.937.505-1.25.277.688.277 1.813 0 2.5-.278.688-.505.125-.505-1.25Zm451 0c0-1.375.227-1.937.505-1.25.277.688.277 1.813 0 2.5-.278.688-.505.125-.505-1.25Zm-321.079-1.583c.048-1.165.285-1.402.604-.604.289.722.254 1.584-.079 1.916-.332.333-.568-.258-.525-1.312Zm191.079-2.417c0-1.375.227-1.937.504-1.25.278.688.278 1.813 0 2.5-.277.688-.504.125-.504-1.25Zm-191.079-2.583c.048-1.165.285-1.402.604-.604.289.722.254 1.584-.079 1.916-.332.333-.568-.258-.525-1.312Zm-129.92-1.417c0-1.375.226-1.937.503-1.25.278.688.278 1.813 0 2.5-.277.688-.504.125-.504-1.25Zm450.999 0c0-1.375.227-1.937.505-1.25.277.688.277 1.813 0 2.5-.278.688-.505.125-.505-1.25ZM114.926 54.327c0-.208.788-.996 1.75-1.75 1.586-1.244 1.622-1.209.378.377-1.307 1.666-2.128 2.196-2.128 1.373Zm277 253c0-.208.788-.996 1.75-1.75 1.586-1.244 1.622-1.209.378.377-1.307 1.666-2.128 2.196-2.128 1.373Zm-22-20c0-.208.788-.996 1.75-1.75 1.586-1.244 1.622-1.209.378.377-1.307 1.666-2.128 2.196-2.128 1.373ZM30.084 186.704c0-1.375.227-1.937.505-1.25.277.688.277 1.813 0 2.5-.278.688-.505.125-.505-1.25Zm450.921-.583c.048-1.165.285-1.402.604-.604.289.721.254 1.584-.079 1.916-.332.332-.568-.258-.525-1.312Zm-384.92-4.417c0-1.375.226-1.937.504-1.25.277.688.277 1.813 0 2.5-.278.688-.505.125-.505-1.25Zm254.92.417c.048-1.165.285-1.402.604-.604.289.722.254 1.584-.079 1.916-.332.333-.568-.258-.525-1.312Zm64-1c.048-1.165.285-1.402.604-.604.289.722.254 1.584-.079 1.916-.332.333-.568-.258-.525-1.312Zm-318.92-5.417c0-1.375.226-1.937.504-1.25.277.688.277 1.813 0 2.5-.278.688-.505.125-.505-1.25Zm318.92.417c.048-1.165.285-1.402.604-.604.289.722.254 1.584-.079 1.916-.332.333-.568-.258-.525-1.312Zm-64-1c.048-1.165.285-1.402.604-.604.289.721.254 1.584-.079 1.916-.332.333-.568-.258-.525-1.312Zm-320.92-4.417c0-1.375.226-1.937.503-1.25.278.688.278 1.813 0 2.5-.277.688-.504.125-.504-1.25Zm450.92.417c.048-1.165.285-1.402.604-.604.289.722.254 1.584-.079 1.916-.332.332-.568-.258-.525-1.312ZM392.799 50.954c-1.244-1.586-1.209-1.621.377-.377 1.666 1.306 2.196 2.127 1.373 2.127-.208 0-.995-.787-1.75-1.75Zm-255 233c-1.244-1.586-1.209-1.621.377-.377 1.666 1.306 2.196 2.127 1.373 2.127-.208 0-.995-.787-1.75-1.75ZM.084 188.704c0-1.375.227-1.937.504-1.25.278.688.278 1.813 0 2.5-.277.688-.504.125-.504-1.25Zm510.921-.583c.048-1.165.285-1.402.604-.604.289.722.254 1.584-.079 1.916-.332.333-.568-.258-.525-1.312Zm-415-3c.048-1.165.285-1.402.604-.604.29.721.254 1.584-.079 1.916-.332.333-.568-.258-.525-1.312Zm319.079-.417c0-1.375.227-1.937.504-1.25.278.688.278 1.813 0 2.5-.277.688-.504.125-.504-1.25Zm0-12c0-1.375.227-1.937.504-1.25.278.688.278 1.813 0 2.5-.277.688-.504.125-.504-1.25Zm-319.079-.583c.048-1.165.285-1.402.604-.604.29.722.254 1.584-.079 1.916-.332.333-.568-.258-.525-1.312Zm415-3c.048-1.165.285-1.402.604-.604.289.722.254 1.584-.079 1.916-.332.333-.568-.258-.525-1.312Zm-511-1c.048-1.165.285-1.402.604-.604.29.722.254 1.584-.079 1.916-.332.333-.568-.258-.525-1.312Zm136.921-93.794c0-.208.788-.995 1.75-1.75 1.586-1.244 1.622-1.209.378.377-1.307 1.666-2.128 2.196-2.128 1.373Z"/>
    <path fill="#fff" fill-opacity=".5" d="M250.426 412.345c-4.066-1.878-7.347-5.621-8.524-9.724-.601-2.096-.976-36.554-.976-89.66 0-78.487-.144-86.257-1.604-86.257-.882 0-4.819-1.685-8.75-3.746-14.404-7.55-24.761-21.582-28.237-38.254-3.541-16.98 2.281-35.689 15.091-48.5 21.229-21.228 55.772-21.228 77 0 21.296 21.296 21.318 55.72.05 76.988-5.758 5.757-18.477 13.512-22.163 13.512-1.114 0-1.391 15.17-1.616 88.427-.268 87.539-.291 88.455-2.333 91.189-4.737 6.344-11.979 8.777-17.938 6.025Zm13.642-213.801c5.486-1.644 11.731-7.371 14.485-13.284 7.716-16.571-4.359-35.536-22.627-35.536-18.29 0-30.343 18.964-22.608 35.575 2.587 5.556 8.456 11.122 13.745 13.036 4.365 1.58 12.112 1.675 17.005.209ZM79.402 355.832c-4.325-1.965-12.38-10.225-24.045-24.66-24.82-30.714-42.913-68.813-50.322-105.968-3.55-17.797-4.387-26.644-4.401-46.5-.015-19.789.814-28.536 4.406-46.5 7.561-37.81 24.574-73.763 49.85-105.35C73.727 3.313 80.563-1.92 89.126.645 97 3.006 101.058 9.856 99.5 18.16c-.452 2.41-2.957 5.965-8.281 11.75-23.888 25.956-39.85 52.27-49.837 82.158-14.93 44.678-14.93 88.595 0 133.273 9.986 29.887 25.95 56.202 49.837 82.157 8.022 8.717 9.521 12.052 8.314 18.491-.886 4.722-3.286 7.665-7.99 9.801-5.138 2.334-7.081 2.341-12.14.042Zm340.852-.066c-4.602-2.089-6.97-5.025-7.931-9.829-1.256-6.281.3-9.735 8.311-18.439 23.895-25.964 39.85-52.269 49.845-82.183 14.898-44.585 14.896-88.645-.007-133.247-9.987-29.888-25.95-56.203-49.837-82.158-5.324-5.785-7.83-9.34-8.282-11.75-1.558-8.304 2.5-15.155 10.374-17.514 6.757-2.024 11.603.471 21.151 10.893 35.778 39.05 57.179 82.812 65.169 133.257 2.995 18.906 2.995 48.91 0 67.816-8.022 50.646-29.918 95.123-66.211 134.492-6.125 6.644-12.206 10.556-16.409 10.556-1.1 0-3.877-.852-6.172-1.894h-.001Zm-301.015-49.312c-22.078-20.819-41.095-55.97-48.219-89.125-12.625-58.762 4.936-121.953 45.402-163.375l8.06-8.25h5.272c9.43 0 15.161 5.22 15.168 13.816.004 5.545-.794 6.952-9.763 17.184-51.831 59.133-51.827 144.786.007 204 8.908 10.176 9.758 11.655 9.758 16.984 0 8.701-5.606 14.006-14.81 14.012-5.033.004-5.599-.269-10.877-5.246h.002Zm253.986 3.291c-4.045-2.467-6.299-6.781-6.299-12.057 0-5.329.85-6.808 9.758-16.984 19.099-21.816 31.734-48.113 36.815-76.616 2.388-13.4 2.382-37.401-.012-50.842-5.083-28.531-17.647-54.662-36.802-76.542-8.961-10.236-9.758-11.642-9.754-17.184.008-8.538 5.741-13.816 15.007-13.816 4.79 0 5.457.328 10.677 5.25 22.207 20.941 41.638 57.065 48.329 89.846 6.498 31.838 4.758 64.241-5.075 94.464-8.749 26.892-25.48 54.429-43.254 71.19-5.278 4.977-5.844 5.25-10.878 5.246-3.501-.002-6.4-.668-8.511-1.955h-.001Zm-203.799-44.407c-6.021-2.807-18.029-18.166-25.277-32.334-21.511-42.049-16.417-92.265 13.06-128.727 9.528-11.786 11.371-13.073 18.717-13.073 7.192 0 10.692 2.266 13.346 8.639 2.638 6.333 1.141 11.12-5.971 19.09-12.38 13.874-20.193 31.272-22.51 50.122-2.973 24.196 5.514 50.373 22.507 69.417 7.242 8.116 8.677 12.603 6.048 18.917-1.056 2.535-3.124 5.506-4.595 6.602-3.386 2.521-11.311 3.218-15.325 1.347Zm159.77-.061c-3.44-1.555-6.81-6.202-7.815-10.779-.936-4.262 1.294-9.496 6.492-15.235 9.736-10.75 17.385-24.87 21.162-39.059 3.016-11.33 3.016-31.67 0-43-3.786-14.225-11.424-28.306-21.223-39.126-2.627-2.9-5.326-7.113-6-9.361-1.065-3.553-.974-4.69.695-8.697 2.726-6.548 6.178-8.816 13.419-8.816 7.346 0 9.189 1.287 18.717 13.073 8.304 10.272 16.928 26.214 20.695 38.256 9.581 30.63 6.764 62.576-8.041 91.171-5.382 10.394-17.38 26.527-22.546 30.317-3.452 2.532-11.325 3.167-15.555 1.256Z"/>
  </g>
  <defs>
    <clipPath id="a">
      <path fill="#fff" d="M0 0h511.805v413.465H0z"/>
    </clipPath>
  </defs>
</svg>
