<svg xmlns="http://www.w3.org/2000/svg" width="291" height="512" fill="none" viewBox="0 0 291 512">
  <g clip-path="url(#a)">
    <path fill="#fff" fill-opacity=".5" d="M290.079 178.917c.048-1.165.285-1.402.604-.604.289.721.253 1.584-.079 1.916-.332.332-.569-.258-.525-1.312Zm-83.329-9.166c13.887-.157 36.612-.157 50.5 0 13.887.157 2.525.285-25.25.285s-39.138-.129-25.25-.285ZM39 452.607c0-.491.739-1.176 1.641-1.523 1.373-.527 1.435-.38.378.893-1.44 1.735-2.019 1.916-2.019.63Zm150.25-265.856c13.613-.157 35.888-.157 49.5 0 13.613.157 2.475.285-24.75.285s-38.362-.128-24.75-.285Z"/>
    <path fill="#fff" fill-opacity=".5" d="M3.566 509.157c-1.536-1.536-2.564-3.689-2.56-5.362C1.007 502.258 22.53 449.7 48.831 387l47.822-114-45.915-.5-45.914-.5-2.412-2.806C1.086 267.651 0 265.513 0 264.443 0 261.828 129.314 3.313 131.55 1.458 133.054.21 143.686 0 205.24 0h71.933l2.504 2.91c1.67 1.943 2.373 3.772 2.112 5.5-.215 1.425-22.981 38.288-50.59 81.92C203.589 133.96 181 169.847 181 170.078c0 .232 23.36.421 51.911.421h51.911l2.688 3.195c4.033 4.793 3.026 8.237-5.299 18.121-3.791 4.501-65.026 77.259-136.077 161.684-71.052 84.425-130.186 154.282-131.41 155.238-1.223.956-3.657 2.019-5.408 2.362-2.573.504-3.675.132-5.75-1.943ZM152.38 319.779C213.221 247.608 263 188.095 263 187.529c0-.692-16.63-1.029-50.777-1.029-55.691 0-54.374.141-55.71-5.943-.365-1.659-.124-3.915.553-5.18.922-1.723 92.893-146.216 99.694-156.627l1.47-2.25H141.496L81.749 136 22 255.5h44.05c36.703 0 44.52.244 46.877 1.463 2.991 1.546 4.072 3.354 4.072 6.807 0 1.158-17.55 44.075-39 95.37s-39 93.607-39 94.026c0 1.15-4.543 6.495 113.379-133.387Z"/>
  </g>
  <defs>
    <clipPath id="a">
      <path fill="#fff" d="M0 0h290.878v511.301H0z"/>
    </clipPath>
  </defs>
</svg>
