<svg xmlns="http://www.w3.org/2000/svg" width="511" height="511" fill="none" viewBox="0 0 511 511">
  <g clip-path="url(#a)">
    <path fill="#fff" fill-opacity=".5" d="M142.755 475.813c0-15.95.138-22.335.307-14.189.168 8.147.168 21.197-.001 29.001-.169 7.803-.307 1.138-.306-14.812Zm225 0c0-15.95.138-22.335.307-14.189.168 8.147.168 21.197-.001 29.001-.169 7.803-.307 1.138-.306-14.812ZM185.064 375.567c5.637-.178 14.862-.178 20.5 0 5.637.179 1.025.325-10.25.325s-15.888-.146-10.25-.325Zm56 0c5.637-.178 14.862-.178 20.5 0 5.637.179 1.025.325-10.25.325s-15.888-.146-10.25-.325Zm66-.003c11.137-.161 29.362-.161 40.5 0 11.137.161 2.025.293-20.25.293s-31.388-.132-20.25-.293Zm-286.44-7.999c8.147-.168 21.197-.168 29 .001 7.805.168 1.14.306-14.81.306-15.95-.001-22.335-.139-14.19-.307Zm441.001 0c8.146-.168 21.196-.168 29 .001 7.804.168 1.139.306-14.811.306-15.95-.001-22.335-.139-14.189-.307ZM134.797 255.313c0-61.875.12-87.187.266-56.25.147 30.938.147 81.563 0 112.5-.146 30.938-.266 5.625-.266-56.25Zm240.963 80c0-17.875.136-25.187.302-16.25.165 8.938.165 23.563 0 32.5-.166 8.938-.302 1.625-.302-16.25Zm-.061-60c0-6.875.16-9.687.355-6.25.195 3.438.195 9.063 0 12.5-.196 3.438-.355.625-.355-6.25Zm0-40c0-6.875.16-9.687.355-6.25.195 3.438.195 9.063 0 12.5-.196 3.438-.355.625-.355-6.25Zm0-40c0-6.875.16-9.687.355-6.25.195 3.438.195 9.063 0 12.5-.196 3.438-.355.625-.355-6.25Zm0-40c0-6.875.16-9.687.355-6.25.195 3.438.195 9.063 0 12.5-.196 3.438-.355.625-.355-6.25ZM20.625 142.565c8.146-.168 21.196-.168 29 .001 7.803.169 1.139.307-14.812.306-15.95 0-22.335-.139-14.188-.307Zm441 0c8.146-.168 21.196-.168 29 .001 7.803.169 1.138.307-14.812.306-15.95 0-22.335-.139-14.188-.307Zm-288.562-8.001c16.638-.154 43.863-.154 60.5 0 16.638.154 3.025.28-30.25.28s-46.887-.126-30.25-.28Zm112 .008c3.438-.196 9.063-.196 12.5 0 3.438.195.625.354-6.25.354s-9.687-.159-6.25-.354Zm38 .007c2.338-.21 6.163-.21 8.5 0 2.338.211.425.383-4.25.383s-6.587-.173-4.25-.383ZM142.755 34.812c0-15.95.138-22.335.307-14.19.168 8.147.168 21.197-.001 29-.169 7.805-.307 1.14-.306-14.81Zm225 0c0-15.95.138-22.335.307-14.19.168 8.147.168 21.197-.001 29-.169 7.805-.307 1.14-.306-14.81Zm-185 441.001c0-15.95.139-22.335.307-14.188.168 8.146.168 21.196-.001 29-.169 7.803-.307 1.138-.306-14.812Zm145 0c0-15.95.139-22.335.307-14.188.168 8.146.168 21.196-.001 29-.169 7.803-.307 1.138-.306-14.812ZM20.625 327.565c8.146-.168 21.196-.168 29 .001 7.804.169 1.139.307-14.811.306-15.95 0-22.335-.138-14.19-.307Zm441 0c8.146-.168 21.196-.168 29 .001 7.804.169 1.139.307-14.811.306-15.95 0-22.335-.138-14.189-.307Zm-278.92-44.252c0-7.425.158-10.462.35-6.75.193 3.713.193 9.788 0 13.5-.192 3.713-.35.675-.35-6.75Zm125.609-6.5c6.307-6.325 11.692-11.5 11.967-11.5.275 0-4.66 5.175-10.967 11.5s-11.693 11.5-11.968 11.5c-.275 0 4.66-5.175 10.968-11.5Zm-89.217-86.238c2.906-.203 7.406-.201 10 .004 2.594.205.217.371-5.283.368-5.5-.003-7.623-.17-4.717-.373v.001Zm-198.472-8.01c8.146-.168 21.196-.168 29 .001 7.804.169 1.139.307-14.811.306-15.95 0-22.335-.138-14.19-.307Zm312 0c8.146-.168 21.196-.168 29 .001 7.804.169 1.139.307-14.811.306-15.95 0-22.335-.138-14.189-.307Zm129 0c8.146-.168 21.196-.168 29 .001 7.804.169 1.139.307-14.811.306-15.95 0-22.335-.138-14.189-.307Zm-212.311-20.752c6.307-6.325 11.692-11.5 11.967-11.5.275 0-4.66 5.175-10.967 11.5s-11.693 11.5-11.968 11.5c-.275 0 4.661-5.175 10.968-11.5Zm-66.559-127c0-15.95.139-22.335.307-14.188.168 8.146.168 21.196-.001 29-.169 7.803-.307 1.138-.306-14.812Zm145 0c0-15.95.139-22.335.307-14.188.168 8.146.168 21.196-.001 29-.169 7.803-.307 1.138-.306-14.812Zm-105 441c0-15.95.139-22.335.307-14.188.168 8.146.168 21.196-.001 29-.169 7.803-.306 1.138-.306-14.812Zm65 0c0-15.95.139-22.335.307-14.188.168 8.146.168 21.196-.001 29-.169 7.803-.307 1.138-.306-14.812Zm-57.081-109.5c0-5.225.169-7.362.375-4.749.206 2.612.206 6.887 0 9.499-.206 2.613-.375.475-.375-4.75Zm41 0c0-5.225.169-7.362.375-4.749.206 2.612.206 6.887 0 9.499-.206 2.613-.375.475-.375-4.75Zm-78.36-33.5c-10.715-10.725-19.256-19.5-18.981-19.5.275 0 9.266 8.775 19.981 19.5 10.714 10.725 19.255 19.5 18.98 19.5-.275 0-9.266-8.775-19.98-19.5Zm119-4c12.916-12.925 23.709-23.499 23.984-23.499.275 0-10.068 10.574-22.984 23.499-12.917 12.925-23.709 23.5-23.984 23.5-.276 0 10.067-10.575 22.984-23.5Zm-291.69-41.248c8.147-.168 21.197-.168 29 .001 7.805.169 1.14.307-14.81.306-15.95 0-22.335-.138-14.19-.307Zm328.94.004c4.812-.183 12.687-.183 17.5 0 4.812.183.875.333-8.75.333s-13.563-.15-8.75-.333Zm112.061-.004c8.146-.168 21.196-.168 29 .001 7.804.169 1.139.307-14.811.306-15.95 0-22.335-.138-14.189-.307Zm-201.061-7.993c3.712-.192 9.787-.192 13.5 0 3.712.192.675.35-6.75.35s-10.463-.158-6.75-.35Zm-239.94-57.007c8.147-.168 21.197-.168 29 .001 7.805.169 1.14.307-14.81.306-15.95 0-22.335-.138-14.19-.307Zm300.005 0c10.348-.163 26.998-.163 37 0 10.001.163 1.535.296-18.815.296-20.35-.001-28.534-.134-18.185-.297v.001Zm140.996 0c8.146-.168 21.196-.168 29 .001 7.804.169 1.139.307-14.811.306-15.95 0-22.335-.138-14.189-.307Zm-157.904-71.252c0-9.075.151-12.787.336-8.25.186 4.538.186 11.963 0 16.5-.185 4.538-.336.825-.336-8.25Zm-80.966-116.5c0-15.95.139-22.335.307-14.188.168 8.146.168 21.196-.001 29-.169 7.803-.306 1.138-.306-14.812Zm65 0c0-15.95.139-22.335.307-14.188.168 8.146.168 21.196-.001 29-.169 7.803-.307 1.138-.306-14.812Zm-40 441.001c0-15.95.138-22.336.307-14.189.168 8.146.168 21.196-.001 29-.169 7.804-.307 1.139-.306-14.811Zm15 0c0-15.95.138-22.336.307-14.189.168 8.146.168 21.196-.001 29-.169 7.804-.307 1.139-.306-14.811Zm-162.951-65.75-18.99-19.251 19.25 18.991c10.587 10.444 19.25 19.107 19.25 19.25 0 .711-1.866-1.105-19.51-18.99Zm310.01.249c10.439-10.45 19.205-19 19.48-19 .275 0-8.041 8.55-18.48 19-10.44 10.45-19.206 19-19.481 19-.275 0 8.041-8.55 18.481-19ZM20.624 262.565c8.147-.168 21.197-.168 29 .001 7.805.169 1.14.307-14.81.306-15.95 0-22.335-.138-14.19-.307Zm317.998.001c7.044-.172 18.294-.172 25 .001 6.705.173.942.314-12.808.313-13.75-.001-19.237-.142-12.192-.314Zm123.003-.001c8.146-.168 21.196-.168 29 .001 7.804.169 1.139.307-14.811.306-15.95 0-22.335-.138-14.189-.307Zm-441-15c8.146-.168 21.196-.168 29 .001 7.804.169 1.139.307-14.811.306-15.95 0-22.335-.138-14.19-.307Zm316.939.001c7.012-.172 18.487-.172 25.5 0 7.012.172 1.275.313-12.75.313s-19.763-.141-12.75-.313Zm124.061-.001c8.146-.168 21.196-.168 29 .001 7.804.169 1.139.307-14.811.306-15.95 0-22.335-.138-14.189-.307ZM278.613 140.314c0-3.026.188-4.263.417-2.75.229 1.512.229 3.987 0 5.499-.229 1.513-.417.276-.417-2.749Zm-15.013-.501c.007-2.75.201-3.756.431-2.236.23 1.52.224 3.77-.015 5-.237 1.23-.425-.015-.418-2.764h.002ZM99.814 100.314c10.439-10.45 19.205-19 19.48-19 .275 0-8.041 8.55-18.48 19-10.44 10.45-19.206 19-19.48 19-.276 0 8.04-8.55 18.48-19Zm309.99-.251-18.99-19.25 19.25 18.99c17.885 17.644 19.701 19.51 18.99 19.51-.143 0-8.806-8.662-19.25-19.25Zm-162.049-65.25c0-15.95.138-22.335.307-14.189.168 8.147.168 21.197-.001 29-.169 7.804-.307 1.14-.306-14.81Zm15 0c0-15.95.138-22.335.307-14.189.168 8.147.168 21.197-.001 29-.169 7.804-.307 1.14-.306-14.81Zm-55 441c0-15.95.139-22.335.307-14.188.168 8.146.168 21.196-.001 29-.168 7.803-.306 1.138-.306-14.812Zm95 0c0-15.95.139-22.335.307-14.188.168 8.146.168 21.196-.001 29-.169 7.803-.307 1.138-.306-14.812Zm-87.086-109c-.003-4.95.165-7.101.375-4.78.21 2.321.213 6.371.008 9-.207 2.629-.379.73-.382-4.22h-.001Zm71 0c-.003-4.95.165-7.101.375-4.78.21 2.321.213 6.371.008 9-.207 2.629-.379.73-.382-4.22h-.001ZM20.625 302.565c8.146-.168 21.196-.168 29 .001 7.804.169 1.139.307-14.811.306-15.95-.001-22.335-.139-14.19-.307Zm329.988.003c4.839-.183 12.489-.183 17 .002 4.51.185.551.335-8.799.334-9.35-.001-13.041-.152-8.201-.336Zm111.012-.003c8.146-.168 21.196-.168 29 .001 7.804.169 1.139.307-14.811.306-15.95-.001-22.335-.139-14.189-.307Zm-201.105-7.992c3.688-.192 9.988-.193 14-.003 4.011.19.994.347-6.706.349-7.7.002-10.983-.154-7.294-.346ZM20.625 207.565c8.146-.168 21.196-.168 29 .001 7.804.169 1.139.307-14.811.306-15.95 0-22.335-.138-14.19-.307Zm300.004 0c10.348-.163 26.998-.163 37 0 10.001.163 1.535.296-18.815.296-20.35-.001-28.534-.134-18.185-.297v.001Zm140.996 0c8.146-.168 21.196-.168 29 .001 7.804.169 1.139.307-14.811.306-15.95 0-22.335-.138-14.189-.307ZM207.755 34.814c0-15.95.139-22.335.307-14.19.168 8.147.168 21.197-.001 29-.168 7.804-.306 1.14-.306-14.81Zm95 0c0-15.95.139-22.335.307-14.19.168 8.147.168 21.197-.001 29-.169 7.804-.307 1.14-.306-14.81Zm-135 440.999c0-15.95.139-22.335.307-14.188.168 8.146.168 21.196-.001 29-.169 7.803-.307 1.138-.306-14.812Zm175 0c0-15.95.139-22.335.307-14.188.168 8.146.168 21.196-.001 29-.169 7.803-.307 1.138-.306-14.812ZM20.625 342.565c8.146-.168 21.196-.168 29 .001 7.804.169 1.139.307-14.811.306-15.95 0-22.335-.138-14.19-.307Zm441 0c8.146-.168 21.196-.168 29 .001 7.804.169 1.139.307-14.811.306-15.95 0-22.335-.138-14.189-.307Zm-293.917-58.752c.002-7.7.159-10.717.349-6.706.19 4.012.189 10.312-.003 14-.192 3.689-.347.406-.346-7.294Zm50.356-108.237c2.887-.202 7.612-.202 10.5 0 2.887.202.525.368-5.25.368s-8.138-.166-5.25-.368Zm-197.44-8.011c8.147-.168 21.197-.168 29 .001 7.805.169 1.14.307-14.81.306-15.95 0-22.335-.138-14.19-.307Zm298.131-.544c-.272-.71-.358-8.248-.19-16.75l.305-15.458.222 16.235.222 16.234 28.25.282 28.25.282-28.282.234c-22.362.185-28.385-.038-28.777-1.058v-.001Zm142.87.544c8.146-.168 21.196-.168 29 .001 7.804.169 1.139.307-14.811.306-15.95 0-22.335-.138-14.189-.307ZM167.755 34.814c0-15.95.139-22.335.307-14.19.168 8.147.168 21.197-.001 29-.169 7.804-.307 1.14-.306-14.81Zm175 0c0-15.95.139-22.335.307-14.19.168 8.147.168 21.197-.001 29-.169 7.804-.307 1.14-.306-14.81Zm-215 440.999c0-15.95.138-22.335.307-14.188.168 8.146.168 21.196-.001 29-.169 7.803-.306 1.138-.306-14.812Zm255 0c0-15.95.138-22.335.307-14.188.168 8.146.168 21.196-.001 29-.169 7.803-.307 1.138-.306-14.812Zm-293.441-55c-10.715-10.725-19.256-19.5-18.981-19.5.275 0 9.266 8.775 19.98 19.5 10.715 10.725 19.256 19.5 18.981 19.5-.275 0-9.266-8.775-19.98-19.5Zm312 19.241c0-.143 8.887-9.03 19.75-19.75l19.75-19.491-19.491 19.75c-18.109 18.351-20.009 20.202-20.009 19.491Zm-177.674-49.49c26.854-.149 70.504-.149 97 0 26.495.148 4.524.269-48.826.269s-75.029-.121-48.174-.269Zm-203.015-7.999c8.146-.168 21.196-.168 29 .001 7.804.169 1.139.307-14.811.306-15.95 0-22.335-.138-14.19-.307Zm441 0c8.146-.168 21.196-.168 29 .001 7.804.169 1.139.307-14.811.306-15.95 0-22.335-.138-14.189-.307ZM119.797 255.313c0-62.425.12-87.962.267-56.75.146 31.213.146 82.288 0 113.5-.147 31.213-.267 5.675-.267-56.75Zm271 0c0-62.425.12-87.962.267-56.75.146 31.213.146 82.288 0 113.5-.147 31.213-.267 5.675-.267-56.75Zm-186.483 67.5c-10.715-10.725-19.256-19.5-18.981-19.5.275 0 9.266 8.775 19.981 19.5 10.714 10.725 19.255 19.501 18.98 19.501-.275 0-9.266-8.776-19.98-19.501ZM20.624 127.565c8.147-.168 21.197-.168 29 .001 7.805.169 1.14.307-14.81.306-15.95 0-22.335-.138-14.19-.307Zm441.001 0c8.146-.168 21.196-.168 29 .001 7.804.169 1.139.307-14.811.306-15.95 0-22.335-.138-14.189-.307Zm-270.985-8.001c26.854-.148 70.504-.148 96.999 0 26.496.148 4.525.269-48.825.269s-75.029-.121-48.174-.27v.001Zm-120.326-10.51c0-.143 8.887-9.03 19.75-19.75l19.75-19.49-19.49 19.75c-18.11 18.35-20.01 20.201-20.01 19.49Zm350-19.24c-10.715-10.725-19.256-19.5-18.981-19.5.275 0 9.266 8.775 19.981 19.5 10.714 10.725 19.255 19.499 18.98 19.499-.275 0-9.266-8.774-19.98-19.5Zm-292.559-55c0-15.95.138-22.335.307-14.19.168 8.147.168 21.197-.001 29-.169 7.804-.306 1.14-.306-14.81Zm255 0c0-15.95.138-22.335.307-14.19.168 8.147.168 21.197-.001 29-.169 7.804-.307 1.14-.306-14.81Z"/>
    <path fill="#fff" fill-opacity=".5" d="M133.314 510.594c-.825-.298-2.288-1.228-3.25-2.066-1.594-1.388-1.75-4.191-1.75-31.324v-29.8l-3.75-.629c-9.461-1.589-10.176-2.131-34.004-25.807-24.004-23.851-25.182-25.389-26.728-34.905l-.61-3.75H33.424c-28.593 0-29.873-.081-31.621-2.012-2.58-2.852-2.355-7.867.456-10.143 2.098-1.699 4.595-1.844 31.666-1.844h29.39v-26H33.468c-28.64 0-29.92-.082-31.667-2.013-2.58-2.852-2.355-7.867.456-10.143 2.098-1.699 4.595-1.845 31.666-1.845h29.39v-25.999H33.468c-28.64 0-29.92-.082-31.667-2.013-2.58-2.852-2.355-7.867.456-10.143 2.098-1.699 4.595-1.844 31.666-1.844h29.39v-26H33.468c-28.64 0-29.92-.082-31.667-2.013-2.336-2.581-2.336-7.394 0-9.975 1.748-1.931 3.028-2.012 31.667-2.012h29.844v-26H33.924c-27.071 0-29.568-.146-31.666-1.845-2.811-2.276-3.037-7.291-.456-10.143 1.748-1.931 3.028-2.012 31.667-2.012h29.844v-26H33.924c-27.071 0-29.568-.146-31.666-1.845-2.811-2.276-3.037-7.291-.456-10.143 1.748-1.931 3.028-2.012 31.667-2.012h29.844v-26H33.924c-27.071 0-29.568-.146-31.666-1.845-2.811-2.276-3.037-7.291-.456-10.143 1.748-1.931 3.028-2.012 31.621-2.012h29.8l.63-3.75c1.588-9.461 2.13-10.176 25.806-34.004 23.851-24.004 25.389-25.182 34.905-26.728l3.75-.61V33.424c0-28.593.081-29.873 2.012-31.621 2.852-2.58 7.867-2.355 10.143.456 1.699 2.098 1.845 4.595 1.845 31.666v29.39h26V33.468c0-28.638.081-29.918 2.012-31.666 2.852-2.58 7.867-2.355 10.143.456 1.699 2.098 1.845 4.595 1.845 31.666v29.39h26V33.468c0-28.638.081-29.918 2.012-31.666 2.852-2.58 7.867-2.355 10.143.456 1.699 2.098 1.845 4.595 1.845 31.666v29.39h26V33.468c0-28.638.081-29.918 2.012-31.666 2.581-2.336 7.394-2.336 9.975 0 1.931 1.748 2.013 3.028 2.013 31.666v29.846h26v-29.39c0-27.071.145-29.568 1.844-31.666 2.276-2.811 7.291-3.037 10.143-.456 1.931 1.748 2.013 3.028 2.013 31.666v29.846h26v-29.39c0-27.071.145-29.568 1.844-31.666 2.276-2.811 7.291-3.037 10.143-.456 1.931 1.748 2.013 3.028 2.013 31.666v29.846h26v-29.39c0-27.071.145-29.568 1.844-31.666 2.276-2.811 7.291-3.037 10.143-.456 1.931 1.748 2.013 3.028 2.013 31.621v29.8l3.75.61c9.515 1.545 11.053 2.723 34.904 26.727 23.676 23.828 24.218 24.543 25.807 34.004l.629 3.75h29.8c28.593 0 29.873.081 31.621 2.012 2.581 2.852 2.355 7.867-.456 10.143-2.097 1.699-4.595 1.845-31.666 1.845h-29.389v26h29.845c28.638 0 29.918.081 31.666 2.012 2.581 2.852 2.355 7.867-.456 10.143-2.097 1.699-4.595 1.845-31.666 1.845h-29.389v26h29.845c28.638 0 29.918.081 31.666 2.012 2.581 2.852 2.355 7.867-.456 10.143-2.097 1.699-4.595 1.845-31.666 1.845h-29.389v26h29.845c28.638 0 29.918.081 31.666 2.012 2.336 2.581 2.336 7.394 0 9.975-1.748 1.931-3.028 2.013-31.666 2.013h-29.845v26h29.389c27.071 0 29.569.145 31.666 1.844 2.811 2.276 3.037 7.291.456 10.143-1.748 1.931-3.028 2.013-31.666 2.013h-29.845v25.999h29.389c27.071 0 29.569.146 31.666 1.845 2.811 2.276 3.037 7.291.456 10.143-1.748 1.931-3.028 2.013-31.666 2.013h-29.845v26h29.389c27.071 0 29.569.145 31.666 1.844 2.811 2.276 3.037 7.291.456 10.143-1.748 1.931-3.028 2.012-31.621 2.012h-29.8l-.629 3.75c-1.589 9.461-2.131 10.176-25.807 34.004-23.851 24.004-25.389 25.182-34.904 26.728l-3.75.609v29.8c0 28.593-.082 29.873-2.013 31.621-2.852 2.581-7.867 2.355-10.143-.456-1.699-2.097-1.844-4.595-1.844-31.666v-29.389h-26v29.845c0 28.638-.082 29.918-2.013 31.666-2.852 2.581-7.867 2.355-10.143-.456-1.699-2.097-1.844-4.595-1.844-31.666v-29.389h-26v29.845c0 28.638-.082 29.918-2.013 31.666-2.852 2.581-7.867 2.355-10.143-.456-1.699-2.097-1.844-4.595-1.844-31.666v-29.389h-26v29.845c0 28.638-.082 29.918-2.013 31.666-1.107 1.002-3.352 1.822-4.987 1.822-1.636 0-3.88-.82-4.988-1.822-1.931-1.748-2.012-3.028-2.012-31.666v-29.845h-26v29.389c0 27.071-.146 29.569-1.845 31.666-2.276 2.811-7.291 3.037-10.143.456-1.931-1.748-2.012-3.028-2.012-31.666v-29.845h-26v29.389c0 27.071-.146 29.569-1.845 31.666-2.276 2.811-7.291 3.037-10.143.456-1.931-1.748-2.012-3.028-2.012-31.666v-29.845h-26v29.389c0 26.552-.169 29.584-1.75 31.413-1.955 2.261-4.984 3.296-7.25 2.478Zm277.202-100.078 21.798-21.798V121.909l-21.798-21.798-21.798-21.797H121.909l-21.798 21.797-21.797 21.798v266.809l21.797 21.798 21.798 21.798h266.809l21.798-21.798Zm-277.13-21.936c-4.476-2.205-9.273-7.061-11.398-11.54-1.573-3.315-1.679-12.377-1.436-122.903l.261-119.323 2.83-4.171c1.557-2.293 4.707-5.443 7-6.999l4.17-2.83 101.906-.265c93.991-.243 102.049-.134 103.75 1.405 1.853 1.677 2.477 6.866 1.079 8.96-1.644 2.462-5.559 3.399-14.193 3.399h-9.09l.274 16.75.274 16.75 28.751.266 28.749.265v-28.185l-2.923-2.923c-1.744-1.744-3.98-2.923-5.545-2.923-3.264 0-7.532-4.116-7.532-7.266 0-1.296.964-3.391 2.142-4.655 1.857-1.994 2.885-2.243 7.75-1.883 6.794.504 12.639 4.034 16.778 10.134l2.831 4.17v241l-2.831 4.17c-1.556 2.294-4.706 5.444-7 7l-4.17 2.83-101.905.265c-93.991.243-102.049.134-103.75-1.405-1.045-.946-1.838-3.011-1.829-4.765.034-7.036 2.013-7.594 26.919-7.594h21.066v-9.033c0-5.536-.542-10.277-1.399-12.25-.769-1.769-10.259-11.992-21.089-22.717-10.831-10.725-20.889-21.301-22.352-23.5-2.591-3.895-2.669-4.465-2.991-21.709-.313-16.768-.438-17.742-2.36-18.352-3.389-1.076-10.011-7.695-11.944-11.94-1.056-2.32-1.822-6.309-1.822-9.5 0-24.666 33.155-31.949 43.576-9.57 3.949 8.481 2.761 17.43-3.247 24.448-1.819 2.125-4.896 4.618-6.839 5.54l-3.533 1.676v14.731c0 12.002.304 15.188 1.645 17.203.904 1.36 11.212 12.147 22.906 23.972 24.207 24.479 23.434 23.152 23.443 40.251l.004 10.75h41.799l.38-12.751c.295-9.9.79-13.532 2.218-16.249 2.376-4.524 52.005-54.179 56.603-56.633 3.027-1.615 6.303-1.911 24.25-2.19l20.75-.322v-25.855h-25.566c-16.907 0-26.306.379-27.75 1.12-1.201.616-8.05 6.895-15.22 13.953-17.051 16.786-17.255 16.876-38.147 16.905-15.577.022-16.208.1-16.852 2.132-1.098 3.459-7.678 10.071-11.965 12.024-8.517 3.879-19.648 1.643-26.2-5.262-13.882-14.633-3.471-38.861 16.7-38.861 8.411 0 17.004 5.263 20.45 12.525l1.709 3.602 15.347-.319 15.347-.32 13.97-13.752c8.8-8.664 15.581-14.484 18.323-15.728 3.996-1.814 6.632-1.978 32.104-1.998l27.75-.022v-26.001h-74.758l-1.257 3.035c-1.686 4.071-9.381 10.703-13.863 11.948-8.924 2.479-16.749.438-23.289-6.074-8.849-8.811-9.278-21.972-1.017-31.136 9.108-10.102 24.464-10.469 33.86-.809 1.746 1.795 3.713 4.563 4.371 6.151l1.195 2.885h74.758v-26h-30.04c-28.133 0-30.29-.127-33.987-2.013-7.011-3.577-7.973-6.95-7.973-27.947v-18.039h-26l-.023 7.75c-.034 11.477-1.71 14.341-17.782 30.355-7.533 7.506-15.271 14.478-17.196 15.495-2.757 1.455-6.314 1.927-16.75 2.222l-13.249.374-1.63 3.435c-.897 1.889-3.368 4.923-5.493 6.741-8.815 7.545-21.049 7.453-30.021-.227-12.653-10.83-9.641-31.255 5.643-38.266 5.184-2.378 13.791-2.385 19.009-.016 4.136 1.879 9.828 7.585 11.729 11.759 1.027 2.253 1.563 2.376 10.357 2.376 5.101 0 10.542-.472 12.09-1.05 3.248-1.211 25.75-23.121 27.885-27.15.786-1.485 1.43-5.198 1.43-8.25v-5.55H140.157l-2.923 2.924-2.923 2.923v230.307l2.923 2.923c1.745 1.745 3.98 2.923 5.546 2.923 3.264 0 7.531 4.117 7.531 7.266 0 1.297-.918 3.342-2.039 4.546-2.542 2.728-9.821 2.95-14.889.455l.003.002Zm240.004-15.19 2.924-2.923v-68.153h-16.935c-9.344 0-18.197.469-19.75 1.047-3.745 1.393-50.128 47.557-51.916 51.67-.858 1.974-1.399 6.711-1.399 12.25v9.033h84.153l2.923-2.924Zm-138.135-78.546c6.267-3.241 5.679-13.073-.919-15.373-9.932-3.462-16.348 10.335-7.134 15.343 3.352 1.822 4.579 1.826 8.053.03Zm-56.545-39.923c6.793-2.838 6.574-12.72-.345-15.586-2.749-1.139-3.676-1.094-6.646.322-6.346 3.026-6.93 11.146-1.06 14.726 3.773 2.3 3.826 2.304 8.051.538Zm103.963-31.984c4.655-1.945 6.502-6.594 4.384-11.036-2.106-4.415-6.614-6.298-10.867-4.536-6.711 2.779-7.025 12.671-.492 15.514 3.863 1.682 3.103 1.675 6.975.058Zm-85.995-33.492c4.556-3.986 3.768-10.977-1.546-13.725-7.266-3.758-14.869 3.229-11.738 10.787 2.22 5.361 8.842 6.825 13.284 2.938Z"/>
  </g>
  <defs>
    <clipPath id="a">
      <path fill="#fff" d="M0 0h510.627v510.872H0z"/>
    </clipPath>
  </defs>
</svg>
