<svg xmlns="http://www.w3.org/2000/svg" width="490" height="512" fill="none" viewBox="0 0 490 512">
  <g clip-path="url(#a)">
    <path fill="#fff" fill-opacity=".5" d="M103.178 510.801c-2.637-1.062-4.316-3.952-4.316-7.429 0-1.412 25.148-52.861 55.884-114.331l55.883-111.763-5.206-4.985c-6.477-6.202-10.006-12.159-12.141-20.493-1.591-6.208-1.556-16.212.073-21.516.551-1.793-7.25-6.57-68.587-42-38.064-21.987-69.763-40.112-70.44-40.277-.678-.166-3.314 3.309-5.858 7.72-4.822 8.359-6.717 10.081-11.093 10.081-3.01 0-33.068-16.996-35.85-20.271-1.157-1.363-1.702-3.278-1.477-5.194.484-4.121 77.414-137.228 80.47-139.23 1.436-.942 3.46-1.331 5.155-.992 3.135.627 31.671 16.855 34.532 19.638 3.145 3.06 2.384 7.778-2.662 16.507-2.531 4.377-4.507 8.027-4.392 8.112.114.086 54.658 31.543 121.208 69.906 66.55 38.364 122.013 70.851 123.25 72.194 2.895 3.141 2.838 5.741-.25 11.542-1.375 2.583-2.5 4.898-2.5 5.145 0 .247 14.738 8.925 32.75 19.286 18.013 10.361 33.763 19.834 35.001 21.052 2.918 2.872 2.841 5.895-.302 11.805-1.403 2.639-2.19 5.134-1.75 5.545.441.412 15.426 9.153 33.301 19.425s33.288 19.594 34.25 20.714c.963 1.121 1.75 3.231 1.75 4.691 0 2.201-6.701 14.797-17.466 32.832-2.499 4.187-6.779 6.016-10.655 4.553-1.58-.596-16.487-8.935-33.126-18.53s-31.244-17.964-32.455-18.597c-2.009-1.051-2.435-.754-4.858 3.38-2.944 5.024-4.98 6.487-9.023 6.487-2.178 0-41.993-22.052-67.101-37.165l-3.184-1.917-2.674 4.564c-2.935 5.007-5.517 6.849-9.445 6.737-2.135-.061-17.661-8.322-30.603-16.284l-3.09-1.901-4.13 3.536-4.13 3.535 55.97 111.963c35.291 70.597 55.97 113.033 55.97 114.859 0 2.005-.945 3.691-3.076 5.484-3.653 3.074-6.78 3.287-10.039.684-1.474-1.177-23.586-44.346-57.885-113.007l-55.5-111.104-.5 110.595-.5 110.594-2.805 2.414c-3.561 3.062-6.829 3.062-10.389 0l-2.806-2.414-.5-110.836-.5-110.837-55.838 111.5c-30.711 61.325-56.811 112.277-58 113.228-2.362 1.888-4.967 2.126-8.346.765Zm359.295-188.743c.601-.963 2.517-4.277 4.259-7.364l3.168-5.614-28.861-16.636c-15.874-9.15-29.27-16.633-29.769-16.629-1.312.011-8.914 14.317-7.823 14.723.503.187 13.515 7.705 28.915 16.707 15.4 9.002 28.229 16.411 28.51 16.465.28.054 1-.69 1.601-1.652Zm-71.56-46c6.227-10.863 11.932-20.712 12.678-21.889 1.288-2.032.968-2.362-6.437-6.644a81283.819 81283.819 0 0 0-29.49-17.042l-21.698-12.536-12.671 21.978c-6.969 12.088-12.5 22.149-12.291 22.358.734.734 57.365 33.442 57.972 33.483.338.023 5.709-8.846 11.937-19.708Zm-72.129-44.75c11.448-19.8 20.536-36.311 20.196-36.691-.782-.875-234.456-135.824-234.676-135.528-.963 1.3-41.511 71.981-41.694 72.679-.136.52 31.238 19.143 69.721 41.384l69.968 40.438 4.032-3.451c2.217-1.899 6.947-4.887 10.51-6.641 6.097-3.002 7.13-3.19 17.5-3.19 10.331 0 11.445.201 17.797 3.209 16.704 7.912 26.752 26.985 23.638 44.868-.626 3.592-.89 6.78-.588 7.082 1.688 1.688 20.383 12.131 21.478 11.999.718-.087 10.671-16.358 22.118-36.158Zm-71.45 32.069c8.065-4.726 13.349-15.482 12.036-24.498-1.925-13.216-12.163-22.358-24.963-22.288-9.896.054-17.164 4.311-22.314 13.072-2.328 3.959-2.727 5.752-2.708 12.145.034 11.233 4.504 18.328 14.477 22.982 6.485 3.026 16.976 2.394 23.472-1.413ZM68.434 87.386c18.385-31.831 33.428-58.22 33.428-58.64 0-.42-3.153-2.583-7.007-4.805l-7.007-4.04-1.39 2.203c-3.526 5.59-65.555 113.613-65.809 114.604-.29 1.134 12.017 9.078 13.535 8.737.452-.102 15.864-26.228 34.25-58.06Z"/>
  </g>
  <defs>
    <clipPath id="a">
      <path fill="#fff" d="M0 0h489.862v511.703H0z"/>
    </clipPath>
  </defs>
</svg>
