<?xml version="1.0" encoding="UTF-8" standalone="no"?>
<!-- Created with Inkscape (http://www.inkscape.org/) -->

<svg
   width="115.87029mm"
   height="41.784073mm"
   viewBox="0 0 115.87029 41.784071"
   version="1.1"
   id="svg5"
   xml:space="preserve"
   inkscape:version="1.2 (dc2aedaf03, 2022-05-15)"
   sodipodi:docname="ESA.svg"
   xmlns:inkscape="http://www.inkscape.org/namespaces/inkscape"
   xmlns:sodipodi="http://sodipodi.sourceforge.net/DTD/sodipodi-0.dtd"
   xmlns="http://www.w3.org/2000/svg"
   xmlns:svg="http://www.w3.org/2000/svg"><sodipodi:namedview
     id="namedview7"
     pagecolor="#ffffff"
     bordercolor="#000000"
     borderopacity="0.25"
     inkscape:showpageshadow="2"
     inkscape:pageopacity="0.0"
     inkscape:pagecheckerboard="0"
     inkscape:deskcolor="#d1d1d1"
     inkscape:document-units="mm"
     showgrid="false"
     inkscape:zoom="0.36925856"
     inkscape:cx="-1329.6916"
     inkscape:cy="116.44957"
     inkscape:window-width="1920"
     inkscape:window-height="1009"
     inkscape:window-x="1912"
     inkscape:window-y="-8"
     inkscape:window-maximized="1"
     inkscape:current-layer="layer1" /><defs
     id="defs2" /><g
     inkscape:label="Warstwa 1"
     inkscape:groupmode="layer"
     id="layer1"
     transform="translate(-1034.2113,-199.75503)"><path
       style="fill:#ffffff;stroke-width:0.264583"
       d="m 1052.5282,240.11517 c -3.9516,-1.90975 -7.2843,-4.22664 -10.4821,-7.28721 -4.1789,-3.99967 -7.9742,-9.23095 -7.7906,-10.73849 0.074,-0.60701 0.2104,-0.47231 1.1374,1.12172 2.7157,4.67016 6.6387,9.01932 11.1987,12.41519 1.8885,1.40636 7.2547,4.31459 10.3697,5.61985 0.617,0.25852 0.5902,0.27821 -0.3969,0.29265 -0.7615,0.0111 -1.8933,-0.38807 -4.0362,-1.42371 z m -3.3021,0.0516 c -2.5405,-1.39162 -5.8225,-3.80781 -8.3322,-6.13397 -3.1659,-2.93452 -6.1422,-6.93966 -5.8371,-7.855 0.046,-0.13797 0.8232,0.74764 1.7271,1.96803 3.2639,4.40695 8.464,8.87757 13.8217,11.88282 1.9208,1.07746 2.1372,1.26432 1.4609,1.26199 -0.4365,-0.002 -1.7147,-0.50725 -2.8404,-1.12387 z m 7.6714,0.0762 c -7.7837,-2.89315 -14.1573,-7.77523 -19.03,-14.5766 -2.4144,-3.37012 -4.2926,-7.39053 -3.4526,-7.39053 0.1143,0 0.6014,0.80367 1.0823,1.78594 3.2299,6.5963 9.484,13.17261 15.9858,16.80952 2.4301,1.35927 5.9607,2.83764 8.0586,3.37436 0.8821,0.22568 1.2686,0.43235 1.0583,0.56588 -0.5814,0.3692 -1.6005,0.21271 -3.7024,-0.56857 z m 3.0954,-0.66443 c -3.533,-1.04531 -7.1338,-2.63907 -9.7571,-4.31864 -4.1441,-2.65327 -8.7597,-7.11461 -11.3442,-10.96495 -1.6893,-2.51684 -4.1553,-7.42267 -4.1553,-8.26666 0,-1.18349 0.376,-0.8741 1.0533,0.86671 1.699,4.36679 5.3294,9.65279 9.0028,13.10849 2.4204,2.27692 5.9745,4.74589 9.078,6.30627 2.2436,1.1281 7.8719,3.12241 8.83,3.12885 0.7198,0.005 1.0177,0.42188 0.4555,0.63763 -0.6024,0.23117 -0.8099,0.19853 -3.163,-0.4977 z m -15.2912,-0.85135 c -2.0286,-1.0819 -5.1352,-3.85024 -6.5085,-5.79981 -0.8038,-1.14114 -0.6205,-1.01484 1.5875,1.09395 2.1934,2.09483 4.1304,3.68569 6.342,5.20886 1.0431,0.71838 0.5258,0.53527 -1.421,-0.503 z m 18.6096,0.021 c -10.9511,-2.23181 -20.3563,-9.31023 -25.3375,-19.06927 -1.7957,-3.51808 -2.5555,-5.68728 -2.3181,-6.61756 0.1684,-0.6599 0.2806,-0.48163 1.0529,1.67306 4.2823,11.94733 14.7818,20.98021 27.0446,23.26666 1.2849,0.23959 2.3665,0.46399 2.4035,0.49869 0.037,0.0347 -0.2011,0.18364 -0.5292,0.33099 -0.4184,0.18799 -1.1095,0.16335 -2.3162,-0.0826 z m 3.0427,-1.09177 c -11.2307,-1.22273 -21.9843,-8.79217 -27.1483,-19.10961 -1.1566,-2.3108 -2.6173,-6.37811 -2.6173,-7.28792 0,-1.37701 0.4263,-0.71001 1.3554,2.1207 0.5496,1.6745 1.4815,3.97146 2.0709,5.10437 0.5894,1.13291 1.0716,2.33536 1.0716,2.67212 0,0.36178 0.387,0.97225 0.9459,1.49204 0.5202,0.48386 1.0503,0.97797 1.1779,1.09802 0.1276,0.12006 1.4581,1.46876 2.9567,2.99713 3.0091,3.06888 5.5064,4.90837 9.0861,6.69288 3.5294,1.7594 8.6704,3.31659 11.1561,3.37916 0.4063,0.0102 0.9742,0.11059 1.262,0.22303 0.5213,0.20367 0.5213,0.20538 0,0.45447 -0.2878,0.13751 -0.8804,0.21114 -1.317,0.16361 z m -1.4296,-1.81532 c -4.2232,-0.70774 -8.9929,-2.57679 -12.7394,-4.99214 -3.4927,-2.25168 -8.4461,-7.09755 -7.5906,-7.42583 0.2326,-0.0892 1.2002,0.70216 2.5525,2.08761 3.7952,3.88824 8.0198,6.55702 13.0314,8.23229 2.6715,0.89301 6.9674,1.72579 8.9201,1.72921 0.7631,0.001 0.8446,0.059 0.5629,0.39843 -0.4023,0.48481 -1.7164,0.4766 -4.7369,-0.0296 z m 2.6423,-1.25641 c 0.279,-0.2413 3.6897,-0.39547 3.5443,-0.16021 -0.087,0.14056 -0.9447,0.25557 -1.9063,0.25557 -0.9615,0 -1.6986,-0.0429 -1.638,-0.0954 z m -8.3903,-1.99005 c -2.7264,-1.07591 -5.7777,-2.77261 -7.907,-4.39674 -2.2539,-1.71916 -5.4206,-4.95015 -5.4206,-5.53067 0,-0.23243 0.056,-0.4226 0.1252,-0.4226 0.069,0 1.1701,1.04446 2.4474,2.32102 2.3656,2.36436 5.9957,4.99912 8.5672,6.21821 1.6795,0.79621 4.6821,2.57731 4.3228,2.56416 -0.137,-0.005 -1.0977,-0.34403 -2.135,-0.75338 z m 30.0037,0.14214 c -5.2304,-1.78254 -8.1417,-6.01002 -8.1417,-11.82263 0,-4.93275 2.8284,-9.55811 6.8139,-11.14307 2.1725,-0.86393 6.1602,-0.86393 8.3326,0 2.7929,1.11066 5.3928,4.19159 6.5216,7.72818 0.3721,1.16578 0.7924,4.49487 0.6242,4.94381 -0.095,0.25352 -1.8159,0.33073 -7.3716,0.33073 h -7.2478 v -2.11667 -2.11667 h 4.2334 c 4.0845,0 4.2333,-0.019 4.2333,-0.5397 0,-0.90643 -1.0003,-2.5641 -2.0137,-3.33706 -0.7523,-0.57383 -1.3114,-0.75347 -2.5821,-0.82969 -2.3857,-0.14308 -3.74,0.62781 -4.7969,2.7305 -0.732,1.4562 -0.7936,1.79527 -0.7914,4.3572 0,2.44917 0.085,2.95599 0.7041,4.2802 0.7943,1.70002 1.9896,2.64857 3.9492,3.13387 2.19,0.54238 4.6159,-0.60547 5.438,-2.57307 l 0.3645,-0.87225 h 2.9068 c 3.3922,0 3.3619,-0.0366 2.128,2.57159 -2.271,4.80056 -8.0144,7.07758 -13.3044,5.27473 z m 24.4021,0.43756 c -3.013,-0.50436 -5.3546,-2.14179 -6.5856,-4.60516 -0.4525,-0.90561 -0.8228,-2.04427 -0.8228,-2.53035 v -0.88378 h 2.5219 c 2.1687,0 2.5426,0.0648 2.6706,0.46302 0.8229,2.56079 1.7423,3.27325 4.4482,3.4469 1.6683,0.10707 2.0942,0.0403 3.0035,-0.47078 1.701,-0.95598 2.1615,-2.68044 1.0205,-3.82139 -0.4278,-0.42785 -1.2767,-0.75943 -2.7119,-1.05935 -4.4609,-0.93218 -5.5855,-1.24933 -7.1932,-2.02865 -1.1307,-0.54812 -1.8688,-1.11789 -2.3022,-1.77712 -1.7373,-2.64267 -1.3215,-6.25987 0.9674,-8.4163 3.2927,-3.10202 9.9412,-3.26777 13.913,-0.34685 1.2235,0.89979 2.3266,2.8827 2.6057,4.68396 l 0.1742,1.12447 h -2.5474 c -2.1579,0 -2.5474,-0.0647 -2.5474,-0.42303 0,-0.86189 -0.8782,-2.23186 -1.7933,-2.79741 -1.1866,-0.7334 -3.7329,-0.79848 -5.0152,-0.12818 -1.1968,0.62561 -1.7967,1.84618 -1.39,2.82806 0.4098,0.9894 1.4611,1.45082 4.4944,1.97274 5.8484,1.00629 7.5405,1.82002 8.8092,4.23637 0.7834,1.4921 0.7814,4.60013 0,6.08541 -0.6483,1.22615 -2.4974,3.07389 -3.6459,3.64322 -1.6748,0.83021 -5.586,1.21998 -8.0698,0.8042 z m 19.9666,-0.33792 c -1.8751,-0.61289 -3.6115,-2.00353 -4.4236,-3.54261 -0.4336,-0.82175 -0.5803,-1.56476 -0.5862,-2.96889 -0.01,-1.62959 0.096,-2.04195 0.7936,-3.175 1.4684,-2.38578 3.8523,-3.53584 8.4589,-4.08078 4.2088,-0.49789 5.424,-1.16285 5.424,-2.96807 0,-1.83969 -2.1516,-3.10073 -4.6956,-2.75204 -1.867,0.25589 -3.2419,1.5544 -3.2419,3.06163 0,0.51229 -0.1539,0.5423 -2.7813,0.5423 h -2.7812 l 0.1603,-1.12447 c 0.2284,-1.60248 1.3053,-3.73531 2.3484,-4.65114 1.7044,-1.49647 3.5419,-1.98524 7.5517,-2.0087 3.1853,-0.0186 3.7135,0.0444 4.8802,0.58236 2.0665,0.95279 3.0628,1.8601 3.8099,3.46949 0.682,1.46919 0.6901,1.56263 0.8453,9.68559 0.1008,5.27932 0.266,8.46136 0.4635,8.92969 l 0.3068,0.7276 h -2.9105 -2.9105 l -0.1608,-0.80408 c -0.088,-0.44225 -0.2343,-0.76967 -0.3241,-0.72761 -0.09,0.0421 -1.0934,0.54469 -2.2301,1.11696 -1.8163,0.91434 -2.3295,1.05073 -4.2334,1.1251 -1.6206,0.0633 -2.5689,-0.0469 -3.7634,-0.43733 z m 7.4287,-4.47453 c 0.5881,-0.26714 1.3918,-0.86897 1.7859,-1.33741 0.6673,-0.79303 0.7167,-1.02206 0.7167,-3.32466 v -2.47296 l -0.7614,0.37982 c -0.4188,0.2089 -1.8177,0.60679 -3.1089,0.88419 -1.2911,0.27741 -2.6451,0.62051 -3.0089,0.76245 -1.0538,0.41118 -1.8832,1.49345 -2.0399,2.66208 -0.13,0.96951 -0.051,1.17008 0.789,2.01039 0.8882,0.8882 1.0212,0.93314 2.7458,0.92761 1.1828,-0.004 2.1838,-0.17453 2.8817,-0.49151 z m -85.9287,0.54536 c -3.7539,-2.21058 -8.2779,-6.61215 -8.6765,-8.44174 l -0.2177,-0.999 0.705,0.92604 c 1.4838,1.94893 4.2438,4.62539 6.597,6.39724 1.3467,1.01396 2.5713,2.07297 2.7213,2.35337 0.3427,0.64023 0.3676,0.64544 -1.1291,-0.23591 z m 9.9823,0.37561 c -1.1696,-0.36991 -2.8787,-1.20797 -2.7366,-1.34191 0.05,-0.047 0.9692,0.13883 2.0428,0.41301 1.0736,0.27418 2.919,0.5815 4.101,0.68293 1.5319,0.13146 1.9591,0.23884 1.4876,0.37388 -1.0642,0.30479 -3.7484,0.23465 -4.8948,-0.12791 z m 1.5303,-1.25424 c -2.6012,-0.37343 -5.8974,-1.57498 -6.3952,-2.33126 -0.4087,-0.62094 -0.4044,-0.63892 0.1024,-0.42592 3.8539,1.61963 7.53,2.35897 11.0522,2.22286 2.2604,-0.0873 2.3179,-0.0752 1.7644,0.37273 -0.6423,0.51984 -3.5301,0.59137 -6.5238,0.16159 z m -0.3835,-1.68355 c -3.3994,-0.64361 -6.8353,-2.10102 -6.8353,-2.89932 0,-0.28002 0.4432,-0.17322 1.7612,0.4244 3.6275,1.64481 8.784,2.42214 12.2462,1.84612 1.8777,-0.3124 2.181,-0.23206 1.5407,0.40816 -0.6059,0.6059 -5.9615,0.74153 -8.7128,0.22064 z m -13.7292,-1.2771 c -4.9489,-4.09239 -8.3003,-9.3517 -9.7232,-15.25876 -0.7981,-3.31294 -0.9592,-5.13241 -0.4893,-5.52246 0.3255,-0.27009 0.41,-0.0669 0.5597,1.34539 0.7325,6.90812 4.1947,13.64713 9.234,17.97328 1.7497,1.5021 2.8687,2.87254 2.3455,2.87254 -0.1218,0 -0.9888,-0.63449 -1.9267,-1.40999 z m 13.9435,-0.3359 c -2.0314,-0.36699 -5.5315,-1.60537 -6.7189,-2.37723 -0.5238,-0.34048 -0.8426,-1.16854 -0.4499,-1.16854 0.4683,0 1.7067,0.86888 1.7067,1.19742 0,0.23906 0.2545,0.39008 0.6574,0.39008 0.3616,0 1.7011,0.31629 2.9766,0.70288 1.9981,0.60558 2.8135,0.7052 5.891,0.71964 1.9685,0.009 4.0172,-0.11854 4.564,-0.28467 0.5457,-0.1658 0.9904,-0.22175 0.9882,-0.12434 -0.028,1.245 -5.1614,1.74935 -9.6151,0.94476 z m -15.0651,-2.88925 c -3.1635,-3.18455 -5.0744,-6.30401 -6.5383,-10.67369 -0.8112,-2.42127 -1.5443,-7.01155 -1.2445,-7.79275 0.3599,-0.93792 0.6473,-0.37124 0.8135,1.60419 0.5128,6.09404 2.9541,11.46682 7.2673,15.99361 1.1857,1.24439 1.9064,2.21343 1.8525,2.49075 -0.065,0.33531 -0.6269,-0.0885 -2.1505,-1.62211 z m 15.861,1.46454 c -0.7055,-0.12788 -1.3504,-0.30025 -1.4332,-0.38304 -0.083,-0.0828 2.1017,-0.14029 4.8545,-0.12778 3.638,0.0165 4.7882,0.093 4.2113,0.28013 -1.1099,0.3599 -6.0896,0.51041 -7.6326,0.23069 z m 8.5586,-0.93044 c 0,-0.21828 0.1154,-0.39687 0.2563,-0.39687 0.141,0 0.1878,0.17859 0.104,0.39687 -0.084,0.21828 -0.1991,0.39688 -0.2563,0.39688 -0.057,0 -0.104,-0.1786 -0.104,-0.39688 z m -24.167,-2.53134 c -3.1434,-3.46321 -5.3141,-7.92672 -6.1298,-12.60404 -0.4936,-2.83041 -0.5074,-4.68243 -0.038,-5.07211 0.2938,-0.24384 0.3857,0.15998 0.5193,2.28271 0.3509,5.57385 2.6688,11.07956 6.3421,15.06461 0.5698,0.6182 0.9882,1.31875 0.9393,1.57277 -0.065,0.33974 -0.4873,0.0184 -1.633,-1.24394 z m 8.3582,0.81445 c -0.834,-0.50848 -1.0233,-0.80967 -0.7074,-1.12553 0.277,-0.27705 1.6962,0.71655 1.6979,1.18878 0,0.56856 0.051,0.57167 -0.9905,-0.0633 z m 15.8088,0.12939 c 0,-0.21828 0.1191,-0.39687 0.2646,-0.39687 0.1455,0 0.2646,0.17859 0.2646,0.39687 0,0.21828 -0.1191,0.39688 -0.2646,0.39688 -0.1455,0 -0.2646,-0.1786 -0.2646,-0.39688 z m -0.2645,-1.60955 c 0,-0.46723 0.5695,-0.38586 0.7331,0.10473 0.058,0.17281 -0.084,0.3142 -0.3142,0.3142 -0.2304,0 -0.4189,-0.18852 -0.4189,-0.41893 z m -35.2999,-2.24576 c -1.3671,-2.89048 -2.625,-6.98987 -2.4096,-7.8525 0.1804,-0.72205 0.6678,-0.79194 0.6678,-0.0957 0,0.98607 1.3695,5.19866 2.4372,7.49654 0.8153,1.75491 1.0126,2.41824 0.7864,2.64445 -0.2262,0.2262 -0.5979,-0.32382 -1.4818,-2.19275 z m 4.9586,1.77982 c -1.4291,-0.97 -3.4267,-5.6946 -4.3244,-10.22763 -0.4255,-2.14841 -0.4443,-2.56759 -0.1294,-2.88557 0.416,-0.42009 0.3322,-0.67968 1.05,3.25305 0.5168,2.8313 1.5773,5.66493 3.1549,8.42991 0.6435,1.12779 1.1517,2.03928 1.1295,2.02555 -0.022,-0.0137 -0.4185,-0.28163 -0.8806,-0.59531 z m 6.4407,-1.2991 c -1.7806,-2.32973 -3.4198,-5.68676 -4.1658,-8.53166 -0.6224,-2.37327 -0.8533,-7.28344 -0.3507,-7.45731 0.1909,-0.066 0.3457,0.78576 0.4523,2.48782 0.3014,4.81429 1.899,9.24093 4.6395,12.85486 0.7506,0.98997 1.3648,1.90568 1.3648,2.0349 0,0.76422 -0.6506,0.29855 -1.9401,-1.38861 z m 8.3139,1.37085 c -0.4465,-0.37182 -0.5541,-0.61443 -0.359,-0.80958 0.3842,-0.38421 1.677,0.47195 1.4816,0.98121 -0.1889,0.49235 -0.3557,0.46685 -1.1226,-0.17163 z m 1.233,-1.07975 c -0.6912,-0.43874 -1.2568,-0.89968 -1.2568,-1.02431 0,-0.4179 0.5486,-0.57107 0.9254,-0.25836 0.2052,0.17028 1.1227,0.71361 2.039,1.20739 l 1.6658,0.89779 -1.0583,-0.0124 c -0.7071,-0.008 -1.4754,-0.27717 -2.3151,-0.81012 z m 4.1052,0.1941 c -2.3873,-0.88698 -4.6177,-2.28837 -4.2834,-2.69124 0.2021,-0.24356 0.6217,-0.10668 1.7435,0.56883 1.5731,0.94732 3.9986,1.82174 5.843,2.10655 0.6185,0.0955 1.1245,0.28224 1.1245,0.41497 0,0.46186 -2.7863,0.2107 -4.4276,-0.39911 z m -23.5746,-1.46017 c -1.1051,-2.47163 -1.8338,-4.68739 -2.329,-7.08184 -0.3571,-1.72661 -0.3616,-2.0423 -0.034,-2.37002 0.3277,-0.32773 0.4238,-0.12096 0.7215,1.55229 0.5268,2.96137 1.6841,6.21518 3.3919,9.53715 0.056,0.10914 -0.1301,0.19844 -0.4138,0.19844 -0.3829,0 -0.7273,-0.47301 -1.3367,-1.83602 z m 33.4703,1.39505 c -0.3355,-0.33544 -0.1744,-0.61736 0.3528,-0.61736 0.2939,0 0.5291,0.17639 0.5291,0.39687 0,0.40281 -0.5597,0.54273 -0.8819,0.22049 z m -22.6479,-1.84194 c -2.5582,-3.56313 -3.9259,-7.56352 -4.1721,-12.20303 -0.1487,-2.80253 -0.1286,-2.97659 0.3444,-2.97704 0.4461,-4.2e-4 0.4925,0.17256 0.4148,1.54526 -0.1137,2.00891 0.556,5.84189 1.4353,8.21406 0.3829,1.033 1.3343,2.84817 2.1143,4.0337 0.9811,1.49131 1.3504,2.27646 1.1984,2.54805 -0.1687,0.30156 -0.4782,0.0325 -1.3351,-1.161 z m 15.0399,0.94646 c -2.5516,-0.60467 -5.9649,-2.40996 -5.1487,-2.72317 0.2253,-0.0864 1.2133,0.25516 2.1955,0.75911 0.9822,0.50395 2.3557,0.99239 3.0522,1.08542 0.8446,0.11281 1.3544,0.33361 1.5307,0.66295 0.301,0.5624 10e-4,0.60211 -1.6297,0.21569 z m 7.0685,-0.65527 c -0.073,-0.19015 0.048,-0.41512 0.2691,-0.49992 0.6343,-0.2434 0.8877,-0.18293 0.8877,0.21182 0,0.4859 -0.9866,0.73161 -1.1568,0.2881 z m -20.9897,-1.39834 c -1.9383,-2.6217 -3.4379,-7.00359 -3.6945,-10.79586 -0.175,-2.5847 -0.011,-3.80611 0.5122,-3.80515 0.2368,4.5e-4 0.3296,0.77716 0.3398,2.84428 0.01,1.8015 0.1806,3.47394 0.4686,4.56346 0.4361,1.65005 2.0135,5.16036 2.9998,6.67552 0.6837,1.05034 0.1154,1.52044 -0.6259,0.51775 z m 12.2663,-0.16853 c -1.914,-0.78694 -2.0767,-0.93933 -1.0033,-0.93933 0.9206,0 2.2419,0.49533 3.0783,1.15397 l 0.5292,0.4167 -0.5292,0.002 c -0.291,0.001 -1.2248,-0.28389 -2.075,-0.63348 z m 8.0282,0.015 c 0,-0.34667 0.5371,-0.68976 1.0799,-0.68976 0.4109,0 0.2686,0.72728 -0.1755,0.89773 -0.6521,0.2502 -0.9044,0.19217 -0.9044,-0.20797 z m -19.8039,-2.07883 c -1.73,-3.03141 -2.6857,-6.58627 -2.6857,-9.98965 0,-2.03746 0.1573,-2.6442 0.6857,-2.6442 0.2868,0 0.3298,0.33224 0.2016,1.55857 -0.3323,3.17956 0.8118,7.89993 2.5842,10.66203 0.7371,1.14861 0.8228,1.80232 0.2364,1.80232 -0.1262,0 -0.5862,-0.62508 -1.0222,-1.38907 z m 19.0114,0.72913 c -0.2162,-0.26042 -0.084,-0.41016 0.5623,-0.63534 0.9279,-0.32346 1.1634,-0.24359 0.9467,0.32111 -0.1999,0.52097 -1.1698,0.72293 -1.509,0.31423 z m -18.2703,-2.84579 c -0.5757,-1.20055 -1.223,-3.01625 -1.4384,-4.0349 -0.6164,-2.91413 -0.4793,-6.74687 0.2413,-6.74687 0.2211,0 0.3129,0.90279 0.316,3.10885 0,2.67697 0.1029,3.3944 0.7135,5.16428 0.39,1.13048 0.9881,2.4997 1.3292,3.04271 0.6017,0.95813 0.6603,1.64874 0.1398,1.64874 -0.1401,0 -0.7257,-0.98226 -1.3014,-2.18281 z m 17.0855,1.40062 c -0.2479,-0.40121 -0.1952,-0.43656 0.9644,-0.64604 0.874,-0.15787 1.5814,0.1541 1.2044,0.53111 -0.3155,0.31553 -1.99,0.40426 -2.1688,0.11493 z m -15.7387,-2.19437 c -0.8502,-1.87596 -1.212,-3.14868 -1.4734,-5.18388 -0.2349,-1.82838 0.076,-4.80414 0.5013,-4.80414 0.2303,0 0.3202,0.79725 0.3209,2.84427 10e-4,3.0483 0.415,4.93829 1.5894,7.25594 0.7536,1.48706 0.7615,1.54145 0.2247,1.54145 -0.2509,0 -0.7082,-0.65035 -1.1629,-1.65364 z m 13.6811,0.70856 c -0.4002,-0.2171 -0.7276,-0.42155 -0.7276,-0.45434 0,-0.0328 0.5349,-0.0171 1.1888,0.035 0.6539,0.052 1.5377,-0.0271 1.9641,-0.17569 0.614,-0.21405 0.8059,-0.19029 0.9227,0.11426 0.3178,0.8282 -2.0744,1.17175 -3.348,0.48081 z m -12.1717,-1.37002 c -1.2861,-2.92695 -1.687,-5.16454 -1.3877,-7.7436 0.1326,-1.14224 0.2933,-1.58296 0.5772,-1.58296 0.3282,0 0.3643,0.31798 0.2174,1.91823 -0.2111,2.30018 0.3055,5.10419 1.3081,7.10023 0.6295,1.25332 0.6818,1.82945 0.1662,1.82945 -0.117,0 -0.5136,-0.68461 -0.8812,-1.52135 z m 1.9666,0.38803 c -0.5477,-0.65989 -1.3476,-2.83799 -1.6454,-4.48001 -0.4086,-2.25277 -0.1241,-4.97 0.5204,-4.97 0.4209,0 0.4429,0.1455 0.2184,1.44819 -0.3265,1.8954 0.1467,4.72861 1.1081,6.63468 0.3989,0.79085 0.6648,1.49839 0.5909,1.57231 -0.2233,0.2233 -0.4952,0.15289 -0.7924,-0.20517 z m 0.9539,-1.60926 c -0.3829,-0.78081 -0.8389,-2.14452 -1.0132,-3.03046 -0.3663,-1.86222 -0.1377,-4.54571 0.3873,-4.54571 0.2499,0 0.3308,0.60114 0.3117,2.31511 -0.027,2.40943 0.4312,4.17561 1.4688,5.66324 0.6093,0.87365 0.6115,1.01749 0.016,1.01749 -0.3103,0 -0.7146,-0.49049 -1.1704,-1.41967 z m 5.0954,1.18563 c -1.5687,-0.43752 -3.4979,-4.78891 -3.0874,-6.96382 0.1341,-0.7105 0.2915,-0.93928 0.5722,-0.83159 0.2812,0.10792 0.3878,0.59317 0.3897,1.7739 0,2.08927 0.8506,3.96015 2.3903,5.27807 1.1145,0.95403 1.0581,1.11241 -0.2648,0.74344 z m 2.2356,-0.38808 c -0.7287,-0.33932 -1.7058,-1.05086 -2.1715,-1.58119 -1.1109,-1.2653 -2.067,-4.44833 -1.5049,-5.01041 0.3896,-0.38959 0.8179,0.18333 0.8556,1.14449 0.1159,2.9586 2.3968,5.09726 5.4686,5.12754 0.8731,0.009 1.6705,0.13157 1.7719,0.27325 0.6199,0.86565 -2.5881,0.89927 -4.4197,0.0463 z m -5.3444,-0.50417 c -1.1661,-1.71372 -1.8349,-4.49248 -1.5455,-6.42188 0.12,-0.80038 0.2801,-1.11461 0.5209,-1.02223 0.2415,0.0927 0.3428,0.67402 0.3319,1.9045 -0.02,2.27627 0.4043,3.70336 1.5467,5.20002 0.8764,1.14812 0.8907,1.20121 0.3234,1.19949 -0.3718,-0.001 -0.8118,-0.32247 -1.1774,-0.8599 z m 6.1352,-0.82993 c -1.1224,-0.48905 -2.4334,-2.07317 -2.7795,-3.35868 -0.1612,-0.59869 -0.2286,-1.153 -0.1498,-1.23181 0.2619,-0.26189 0.8839,0.46269 1.0318,1.20185 0.2998,1.49916 2.1281,2.96361 3.7,2.96361 0.3626,0 0.7278,0.17859 0.8116,0.39687 0.1972,0.51394 -1.4583,0.53178 -2.6141,0.0282 z m 0.2202,-1.73478 c -0.7661,-0.46714 -1.5826,-1.51217 -1.3575,-1.73736 0.05,-0.0503 0.685,0.43162 1.4105,1.07083 1.3893,1.22398 1.3649,1.53107 -0.053,0.66653 z"
       id="path400" /></g></svg>
