<?xml version="1.0" encoding="UTF-8" standalone="no"?>
<!-- Created with Inkscape (http://www.inkscape.org/) -->

<svg
   width="101.56487mm"
   height="71.959442mm"
   viewBox="0 0 101.56487 71.959437"
   version="1.1"
   id="svg5"
   xml:space="preserve"
   inkscape:version="1.2 (dc2aedaf03, 2022-05-15)"
   sodipodi:docname="menu.svg"
   xmlns:inkscape="http://www.inkscape.org/namespaces/inkscape"
   xmlns:sodipodi="http://sodipodi.sourceforge.net/DTD/sodipodi-0.dtd"
   xmlns="http://www.w3.org/2000/svg"
   xmlns:svg="http://www.w3.org/2000/svg"><sodipodi:namedview
     id="namedview7"
     pagecolor="#ffffff"
     bordercolor="#000000"
     borderopacity="0.25"
     inkscape:showpageshadow="2"
     inkscape:pageopacity="0.0"
     inkscape:pagecheckerboard="0"
     inkscape:deskcolor="#d1d1d1"
     inkscape:document-units="mm"
     showgrid="false"
     inkscape:zoom="0.26110523"
     inkscape:cx="-811.93318"
     inkscape:cy="314.04963"
     inkscape:window-width="1920"
     inkscape:window-height="1009"
     inkscape:window-x="1912"
     inkscape:window-y="-8"
     inkscape:window-maximized="1"
     inkscape:current-layer="layer1" /><defs
     id="defs2" /><g
     inkscape:label="Warstwa 1"
     inkscape:groupmode="layer"
     id="layer1"
     transform="translate(-1173.2702,-165.5783)"><path
       style="fill:#000000;stroke-width:0.264583"
       d="m 1177.3187,237.1121 c -2.2331,-0.79104 -4.0485,-3.44324 -4.0485,-5.91473 0,-1.51683 0.7477,-3.32834 1.8372,-4.45094 1.9877,-2.04824 -1.8586,-1.89906 48.9628,-1.89906 50.7174,0 46.8861,-0.1475 48.9168,1.88321 2.4641,2.46415 2.4641,6.46944 0,8.93358 -2.032,2.03201 1.821,1.88565 -49.0301,1.86232 -39.5839,-0.0182 -45.6723,-0.0722 -46.6382,-0.41438 z m 0,-29.63333 c -2.2331,-0.79104 -4.0485,-3.44324 -4.0485,-5.91473 0,-1.51683 0.7477,-3.32834 1.8372,-4.45094 1.9877,-2.04824 -1.8586,-1.89906 48.9628,-1.89906 50.7174,0 46.8861,-0.1475 48.9168,1.88321 2.4641,2.46415 2.4641,6.46943 0,8.93358 -2.032,2.032 1.821,1.88565 -49.0301,1.86232 -39.5839,-0.0182 -45.6723,-0.0723 -46.6382,-0.41438 z m 0,-29.63333 c -2.2331,-0.79104 -4.0485,-3.44324 -4.0485,-5.91473 0,-1.51683 0.7477,-3.32834 1.8372,-4.45094 1.9877,-2.04825 -1.8586,-1.89906 48.9628,-1.89906 50.7174,0 46.8861,-0.1475 48.9168,1.88321 2.4641,2.46414 2.4641,6.46943 0,8.93358 -2.032,2.032 1.821,1.88565 -49.0301,1.86232 -39.5839,-0.0181 -45.6723,-0.0723 -46.6382,-0.41438 z"
       id="path577" /></g></svg>
