<svg xmlns="http://www.w3.org/2000/svg" width="609" height="609" fill="none" viewBox="0 0 609 609">
  <path fill="#fff" fill-opacity=".5" d="M208.356 607.496c-2.05-1.064-31.091-53.652-105.251-190.593L.685 227.78l-.342-39.558L0 148.665l2.965-2.966 2.964-2.965h146.204c137.539 0 146.344.123 148.589 2.082 1.313 1.145 57.39 102.977 124.617 226.293 92.823 170.268 122.239 225.18 122.263 228.232.022 2.937-.852 4.78-3.246 6.84L541.079 609l-164.946-.018c-128.557-.013-165.57-.342-167.777-1.487v.001Zm23.361-28.011-107.941-197.91L20.904 192.959l-.33 13.842-.328 13.842 99.509 184.068 99.509 184.068h17.522l-5.069-9.294Zm105.93 8.305c-.218-.543-11.367-21.141-24.776-45.772l-24.38-44.782-38.949-.023c-21.422-.013-38.949.292-38.949.677 0 .383 11.067 20.991 24.592 45.793l24.593 45.096h39.133c21.523 0 38.954-.445 38.736-.989Zm85.974-10.013c-3.279-6.051-14.43-26.525-24.782-45.497l-18.821-34.494-34.263-.315-34.262-.316 6.932 12.878a25359.67 25359.67 0 0 0 24.772 45.779l17.839 32.901 34.273.031 34.273.032-5.961-11.003v.004Zm93.142 3.227c-2.392-4.277-13.612-24.75-24.934-45.497l-20.587-37.721-34.098-.315c-20.186-.187-33.935.126-33.696.769.221.596 11.351 21.212 24.734 45.812l24.331 44.727h68.597l-4.347-7.775ZM271.966 467.158a285391.96 285391.96 0 0 0-24.829-45.497l-19.478-35.684-38.86-.313c-21.372-.173-38.859.146-38.859.708 0 .897 9.578 18.685 40.615 75.433l8.294 15.165h78.468l-5.351-9.812Zm92.673 2.379c-2.246-4.089-13.43-24.563-24.854-45.497l-20.77-38.063-33.993-.315c-18.697-.174-33.994-.032-33.994.314s11.095 20.961 24.654 45.812l24.654 45.183h68.386l-4.083-7.434Zm94.513 6.735c0-.384-11.067-20.991-24.593-45.794l-24.592-45.095h-33.682c-18.525 0-33.682.347-33.682.771 0 .424 11.035 21.031 24.522 45.794l24.523 45.023H425.4c18.563 0 33.752-.315 33.752-.699ZM191.35 319.368l-24.971-45.794h-38.546c-27.176 0-38.546.385-38.546 1.305 0 1.132 42.645 80.37 47.149 87.607l1.666 2.676h78.219l-24.971-45.794Zm115.574 45.096c0-.384-11.066-20.992-24.592-45.794l-24.593-45.096H223.93c-31.707 0-33.76.13-33.019 2.082.435 1.145 11.51 21.752 24.61 45.794l23.82 43.712h33.792c18.585 0 33.791-.314 33.791-.698Zm91.575.236c0-.606-46.055-84.96-48.29-88.449-1.711-2.671-1.783-2.677-34.987-2.677-21.155 0-33.272.429-33.272 1.177 0 .972 32.873 61.891 45.418 84.167l3.516 6.244h33.807c18.594 0 33.808-.208 33.808-.462ZM154.697 252.734c0-.909-43.781-81.268-47.131-86.508l-2.852-4.46h-37.97c-20.883 0-38.195.401-38.47.892-.276.49 10.53 21.093 24.012 45.784l24.513 44.892 38.949.009c21.422.004 38.949-.269 38.949-.61v.001Zm91.574.214c0-.579-46.208-85.283-48.282-88.506-1.718-2.671-1.793-2.676-34.994-2.676-21.928 0-33.273.416-33.273 1.219 0 1.028 36.987 69.687 45.958 85.314l2.903 5.055h33.844c18.614 0 33.844-.183 33.844-.406Zm85.777-10.597c-3.277-6.051-14.467-26.525-24.866-45.496l-18.907-34.495-33.489-.316c-24.626-.232-33.489.047-33.489 1.052 0 .752 10.837 21.359 24.082 45.793l24.083 44.425 34.273.018 34.273.018-5.96-11.003v.004Zm135.428 6.245v-15.559l9.812.345 9.812.346v29.736l-9.812.345-9.812.346v-15.559Zm-83.834-23.78-7.082-7.157 10.051-10.105c5.528-5.557 10.616-10.105 11.307-10.105.691 0 4.171 2.952 7.732 6.559l6.476 6.558-10.701 10.704-10.702 10.703-7.081-7.157Zm168.882-3.563-10.652-10.704 6.467-6.55c3.557-3.602 7.033-6.55 7.724-6.55.691 0 5.785 4.553 11.32 10.118l10.063 10.117-7.135 7.136-7.135 7.136-10.652-10.703Zm-93.372-10.19c-16.559-3.557-36.055-16.029-45.989-29.42-19.415-26.17-22.395-57.229-8.241-85.892 8.91-18.044 23.735-31.698 42.337-38.993 11.554-4.53 21.081-6.01 34.209-5.313 41.933 2.228 74.123 34.614 76.12 76.582 2.226 46.789-34.5 85.133-81.192 84.77-5.233-.04-12.993-.821-17.244-1.734Zm32.463-20.143c27-7.033 46.058-31.39 46.015-58.809-.027-16.525-6.122-31.197-17.825-42.902-11.691-11.693-26.403-17.814-42.814-17.814-16.544 0-30.78 5.968-42.719 17.91-32.989 32.993-17.779 89.357 27.392 101.507 8.426 2.266 21.487 2.313 29.951.108ZM345.23 131.732l.346-9.813h29.732l.345 9.813.345 9.813h-31.114l.346-9.813Zm233.098 0 .346-9.813 15.163-.333 15.163-.332v20.291h-31.017l.345-9.813Zm-190.862-75.56-10.388-10.439 7.148-7.074 7.148-7.075 10.103 10.052c5.557 5.53 10.104 10.618 10.104 11.31 0 1.217-11.973 13.663-13.145 13.663-.32 0-5.256-4.697-10.97-10.438Zm161.138 4.155c-3.412-3.455-6.203-6.812-6.203-7.46 0-.648 4.552-5.707 10.116-11.243l10.116-10.065 7.426 7.474 7.425 7.474-10.703 10.004c-5.887 5.502-10.989 10.025-11.339 10.05-.349.028-3.426-2.779-6.838-6.234Zm-81.128-44.816V0h20.289l-.332 15.166-.333 15.165-9.811.345-9.812.346-.001-15.511Z"/>
</svg>
