<svg xmlns="http://www.w3.org/2000/svg" width="480" height="482" fill="none" viewBox="0 0 480 482">
  <path fill="#fff" fill-opacity=".5" d="M402.843 481.344c-11.582-2.088-24.151-8.304-32.429-16.037-5.201-4.859-6.08-8.821-2.708-12.199 3.107-3.112 6.91-2.406 12.761 2.368 11.188 9.128 23.514 13.252 37.081 12.407 22.771-1.418 41.408-16.812 47.035-38.85 4.289-16.8.562-32.989-10.816-46.982-2.941-3.617-4.244-6.092-4.244-8.06 0-3.728 2.95-6.607 6.77-6.607 5.887 0 16.394 14.275 21.147 28.732 2.116 6.436 2.489 9.255 2.553 19.311.063 9.831-.286 12.942-2.118 18.841-3.731 12.018-8.193 19.424-17.041 28.287-8.743 8.758-16.205 13.304-27.769 16.916-7.491 2.34-22.478 3.269-30.222 1.873Zm-129.032-14.698c-3.527-1.808-13.621-13.45-20.314-23.429-9.069-13.523-16.472-31.747-19.986-49.202-2.366-11.754-2.361-39.986.007-51.124 2.572-12.083 7.617-26.401 13.007-36.912l4.832-9.424-11.167-11.215-11.166-11.215-8.95 8.9c-9.672 9.619-11.85 10.881-18.78 10.881-3.624 0-5.474-.647-9.207-3.219l-4.672-3.22-7.383 7.44-7.383 7.439 2.43 2.61c1.337 1.435 2.906 3.535 3.486 4.667 1.674 3.264 1.275 11.254-.759 15.172-2.707 5.217-94.672 96.795-99.016 98.6-4.343 1.805-9.27 1.856-13.226.139-1.681-.73-16.923-15.293-34.295-32.768L0 359.312v-14.965l48.667-48.868c27.775-27.89 49.966-49.433 51.693-50.184 3.587-1.56 9.443-1.707 13.135-.328 1.456.544 8.467 6.792 15.581 13.885l12.933 12.897 7.516-7.529 7.516-7.529-28.262-28.536c-27.495-27.76-28.255-28.628-27.973-31.933.377-4.422 4.075-7.427 7.966-6.471 1.805.443 12.929 10.908 34.412 32.374l31.745 31.718 20.602-20.621c18.494-18.511 20.909-20.613 23.6-20.536 4.142.118 6.57 2.579 6.57 6.661 0 3.09-1.52 4.866-20.43 23.88l-20.429 20.542 7.948 8.003c4.372 4.402 8.594 8.004 9.384 8.004 1.871 0 76.191-74.456 76.191-76.33 0-.786-3.598-5.014-7.996-9.396l-7.995-7.968-9.373 9.354c-8.447 8.43-9.713 9.354-12.815 9.354-2.462 0-3.943-.62-5.202-2.177-3.399-4.205-2.432-6.266 7.846-16.729l9.606-9.778-15.944-15.992-15.944-15.991-16.937 16.864c-9.316 9.276-17.841 17.132-18.945 17.457-4.431 1.308-9.828-4.184-8.433-8.581.299-.944 8.162-9.339 17.472-18.653l16.927-16.936-4.422-4.497-4.423-4.498-17.487 17.43c-9.618 9.586-18.183 17.429-19.033 17.429-5.104 0-8.763-4.852-7.108-9.425.468-1.293 8.246-9.78 17.284-18.86l16.433-16.51-4.25-4.178-4.25-4.178-17.217 17.155c-14.654 14.601-17.638 17.156-20.039 17.156-3.828 0-6.938-3.074-6.938-6.857 0-2.654 2.058-5.079 17.151-20.214l17.15-17.199-10.787-10.836c-5.933-5.96-11.431-10.836-12.218-10.836-1.794 0-76.185 74.421-76.185 76.216 0 .724 3.809 5.26 8.464 10.08 6.263 6.485 8.464 9.404 8.464 11.223 0 5.959-4.602 9.018-9.829 6.533-3.473-1.65-14.951-13.109-18.728-18.695-1.92-2.84-2.477-4.81-2.477-8.76 0-5.614 1.382-9.005 5.083-12.468 1.342-1.256 2.44-2.758 2.44-3.337 0-.579-1.953-2.942-4.342-5.252-10.274-9.938-10.298-18.49-.082-29.035 10.647-10.99 19.659-11.206 29.776-.71 2.306 2.392 4.651 4.35 5.212 4.35.56 0 2.796-1.814 4.968-4.031l3.949-4.03-9.033-8.923c-11.827-11.681-14.46-15.75-14.46-22.342 0-6.419 1.307-8.87 8.29-15.542 6.144-5.87 8.878-7.306 13.901-7.306 5.891 0 10.006 2.654 20.804 13.417l10.551 10.516 2.145-1.957c1.179-1.077 3.069-2.435 4.199-3.018 3.003-1.55 11.211-1.293 14.685.458 1.655.835 24.178 22.667 50.052 48.515l47.042 46.997 7.485-7.541 7.484-7.542-12.867-12.948c-7.076-7.121-13.311-14.141-13.854-15.6-1.376-3.698-1.23-9.564.327-13.157.752-1.733 22.203-23.885 50.078-51.713C342.486 1.37 342.811 1.07 347.344.412c9.375-1.358 9.457-1.297 42.781 32.255 18.237 18.361 30.944 31.894 31.739 33.8 1.727 4.139 1.681 9.032-.125 13.394-1.751 4.228-94.203 97.386-98.831 99.586-3.503 1.665-11.816 1.867-14.747.359-1.13-.582-3.226-2.153-4.659-3.492l-2.605-2.434-7.427 7.395-7.427 7.396 3.214 4.68c2.59 3.771 3.214 5.58 3.214 9.314 0 5.329-1.678 9.909-4.58 12.499l-2.018 1.801 6.12 6.35c6.887 7.145 7.78 10.295 3.944 13.905-3.841 3.615-7.072 2.742-13.341-3.604-3.071-3.108-6.042-5.652-6.604-5.652-1.25 0-7.032 5.859-7.032 7.126 0 1.04 19.893 21.135 20.922 21.135.369 0 2.901-1.427 5.627-3.171 12.497-7.996 31.124-15.378 44.679-17.706 6.609-1.136 6.837-1.109 9.154 1.071 1.409 1.326 2.375 3.276 2.375 4.793 0 4.541-2.593 6.468-11.285 8.383-23.669 5.216-44.839 17.3-61.858 35.311-17.007 17.998-27.706 39.717-31.774 64.5-2.939 17.909-.907 42.081 4.927 58.614l1.541 4.368 8.218-12.375c15.425-23.227 35.451-46.744 64.285-75.491 27.669-27.586 48.217-45.127 70.748-60.398 6.652-4.508 12.461-8.519 12.911-8.913 1.292-1.135-13.893-5.533-24.767-7.174-10.953-1.652-14.137-3.429-14.137-7.886 0-1.407.81-3.559 1.801-4.782 1.575-1.945 2.512-2.198 7.468-2.016 12.239.449 31.28 5.67 45.745 12.542 14.348 6.817 36.345 23.062 39.498 29.171 1.663 3.22 1.804 8.411.372 13.659-3.669 13.445-21.593 39.955-45.445 67.213-4.692 5.363-9.943 11.406-11.669 13.429l-3.138 3.678 2.433 4.891c1.745 3.508 2.43 6.369 2.423 10.122-.032 17.446-18.208 28.876-33.657 21.164l-4.882-2.437-3.672 3.144c-2.02 1.729-8.052 6.989-13.406 11.689-31.601 27.747-58.743 45.182-71.937 46.211-4.017.313-6.356-.007-8.65-1.183h.001Zm17.97-16.507c14.86-7.466 34.882-22.498 61.057-45.84l10.993-9.803-.504-4.372c-.32-2.774.036-5.919.976-8.61l1.48-4.239-7.486-7.513-7.486-7.512-4.346 4.215c-6.689 6.489-26.894 29.304-35.787 40.409-14.642 18.285-28.55 40.6-28.55 45.806 0 1.837 1.971 1.318 9.653-2.541Zm-7.123-31.79c12.357-17.902 25.895-34.185 46.682-56.146 37.994-40.142 76.626-72.87 102.12-86.515l7.727-4.136-6.751-4.455-6.75-4.455-4.079 1.56c-9.468 3.623-28.916 17.333-50.321 35.478-42.217 35.784-85.153 82.914-104.511 114.718-8.326 13.679-8.35 13.851-3.056 21.828l4.427 6.669 4.134-7.751c2.274-4.263 6.944-11.821 10.378-16.795ZM85.58 398.941l11.728-11.776-12.67-12.717-12.669-12.717L59.496 374.2l-12.474 12.469L59 398.693c6.587 6.613 12.624 12.024 13.415 12.024.791 0 6.716-5.299 13.166-11.776Zm307.59-4.166c4.564-4.572 3.611-11.791-1.935-14.664-4.378-2.268-7.373-1.78-10.927 1.78-3.551 3.556-4.042 6.56-1.787 10.928 1.81 3.505 3.831 4.646 8.301 4.681 2.747.021 4.25-.623 6.348-2.725ZM49.622 339.371l-12.448-12.494-12.003 11.997c-6.602 6.598-12.004 12.421-12.004 12.94 0 .518 5.39 6.353 11.978 12.967l11.977 12.024 12.474-12.469 12.474-12.47-12.448-12.495Zm70.035 25.436c6.602-6.599 12.003-12.434 12.003-12.967 0-.533-5.501-6.468-12.225-13.188l-12.226-12.22-12.696 12.692-12.696 12.691 12.448 12.494c6.847 6.872 12.66 12.495 12.918 12.495.259 0 5.872-5.399 12.474-11.997Zm262.123.49c1.792-.517 5.016-.698 7.165-.403l3.907.536 9.806-11.034c23.322-26.242 38.325-46.292 45.781-61.183 3.853-7.694 4.371-9.669 2.537-9.669-5.198 0-27.475 13.932-45.728 28.599-11.081 8.904-33.862 29.147-40.333 35.84l-4.201 4.346 7.484 7.541c5.045 5.083 7.947 7.35 8.904 6.954.78-.323 2.885-1.01 4.678-1.527ZM84.874 304.041l-12.452-12.473-12.7 12.696-12.7 12.696 12.452 12.499 12.452 12.499 12.7-12.722 12.7-12.721-12.452-12.474Zm80.782 14.037c.815-1.477-.866-3.573-11.331-14.131l-12.288-12.396-12.468 12.477-12.468 12.478 12.674 12.721 12.673 12.721 11.126-11.068c6.119-6.088 11.556-11.849 12.082-12.802Zm-45.751-24.172 12.198-12.246-11.727-11.776c-6.45-6.476-12.375-11.775-13.167-11.775-.791 0-6.716 5.299-13.166 11.775L82.316 281.66l12.198 12.246c6.709 6.735 12.422 12.246 12.695 12.246.274 0 5.987-5.511 12.696-12.246Zm50.574-9.21 7.271-7.326-5.372-5.424-5.372-5.425-7.544 7.557-7.543 7.556 5.12 5.194c2.817 2.857 5.357 5.194 5.645 5.194.288 0 3.796-3.297 7.795-7.326Zm98.487-9.866 9.267-9.656-10.027-10.127-10.027-10.127-9.656 9.64-9.656 9.64 10.094 10.143c5.552 5.578 10.239 10.143 10.416 10.143.177 0 4.493-4.346 9.589-9.656Zm16.685-116.323-5.392-5.402-7.527 7.496-7.527 7.495 5.387 5.452 5.386 5.453 7.533-7.546 7.533-7.546-5.393-5.402Zm43.732-3.737 11.05-11.145-12.7-12.695-12.699-12.695-12.457 12.49-12.456 12.489 12.376 12.309c10.539 10.483 12.632 12.167 14.106 11.35.952-.527 6.703-5.973 12.78-12.103Zm-36.436-34.202 12.203-12.251-12.447-12.467-12.447-12.468-11.76 11.751c-6.468 6.464-11.76 12.388-11.76 13.166 0 1.266 22.296 24.52 23.51 24.52.274 0 5.989-5.513 12.701-12.251Zm70.527.005 12.199-12.247-12.674-12.721-12.674-12.722-12.695 12.718-12.695 12.717 12.203 12.251c6.711 6.737 12.638 12.25 13.17 12.25s6.457-5.511 13.166-12.246Zm-279.505-8.682c-2.437-2.478-4.854-4.506-5.371-4.506-1.24 0-9.005 7.655-9.005 8.877 0 .522 1.995 2.979 4.434 5.459l4.434 4.51 4.97-4.916 4.97-4.917-4.432-4.507ZM327.986 85.47l12.448-12.495-12.473-12.47-12.474-12.469-12.67 12.718-12.669 12.717 12.198 12.247c6.71 6.735 12.423 12.246 12.696 12.246.273 0 6.098-5.622 12.944-12.494Zm69.565.969c6.343-6.34 11.533-12.162 11.533-12.94 0-.778-5.389-6.825-11.977-13.439L385.13 48.036l-12.474 12.47-12.474 12.469L372.63 85.47c6.846 6.872 12.659 12.494 12.917 12.494.259 0 5.66-5.186 12.004-11.525ZM122.736 81.94l4.64-4.72-9.831-9.882c-5.408-5.435-10.456-9.882-11.22-9.882-2.092 0-8.52 6.705-8.52 8.888 0 1.972 17.424 20.315 19.296 20.315.547 0 3.082-2.124 5.635-4.72Zm240.517-55.793c-6.588-6.613-12.401-12.024-12.918-12.024-.518 0-6.343 5.399-12.945 11.998l-12.004 11.997 12.448 12.496 12.448 12.495 12.474-12.47 12.473-12.468-11.976-12.024Zm40.458 424.706c-8.159-2.666-17.197-9.665-17.197-13.317 0-2.707 2.224-6.009 4.754-7.059 2.911-1.208 4.029-.786 11.215 4.223 4.672 3.257 13.435 4.331 19.36 2.372 4.899-1.619 11.284-7.793 13.166-12.73 2.422-6.355 1.563-15.138-1.981-20.239-5.001-7.198-5.422-8.318-4.216-11.234 1.054-2.549 4.347-4.762 7.086-4.762 2.601 0 7.986 5.9 11.019 12.072 2.854 5.807 3.076 6.94 3.076 15.698 0 8.37-.301 10.093-2.653 15.191-3.378 7.32-10.652 14.555-18.036 17.94-6.774 3.104-19.033 3.988-25.593 1.845Z"/>
</svg>
