<?xml version="1.0" encoding="UTF-8" standalone="no"?>
<!-- Created with Inkscape (http://www.inkscape.org/) -->

<svg
   width="1003.412mm"
   height="124.58632mm"
   viewBox="0 0 1003.412 124.58631"
   version="1.1"
   id="svg5"
   xml:space="preserve"
   inkscape:version="1.2 (dc2aedaf03, 2022-05-15)"
   sodipodi:docname="SpaceX.svg"
   xmlns:inkscape="http://www.inkscape.org/namespaces/inkscape"
   xmlns:sodipodi="http://sodipodi.sourceforge.net/DTD/sodipodi-0.dtd"
   xmlns="http://www.w3.org/2000/svg"
   xmlns:svg="http://www.w3.org/2000/svg"><sodipodi:namedview
     id="namedview7"
     pagecolor="#ffffff"
     bordercolor="#000000"
     borderopacity="0.25"
     inkscape:showpageshadow="2"
     inkscape:pageopacity="0.0"
     inkscape:pagecheckerboard="0"
     inkscape:deskcolor="#d1d1d1"
     inkscape:document-units="mm"
     showgrid="false"
     inkscape:zoom="0.26110523"
     inkscape:cx="1451.5221"
     inkscape:cy="1083.8542"
     inkscape:window-width="1920"
     inkscape:window-height="1009"
     inkscape:window-x="1912"
     inkscape:window-y="-8"
     inkscape:window-maximized="1"
     inkscape:current-layer="layer1" /><defs
     id="defs2" /><g
     inkscape:label="Warstwa 1"
     inkscape:groupmode="layer"
     id="layer1"
     transform="translate(-574.53167,38.592966)"><g
       id="g419"
       transform="translate(-11.146528,-207.73074)"
       style="fill:#ffffff"><path
         style="fill:#ffffff;fill-opacity:1;stroke-width:0.264583"
         d="m 1303.652,292.00404 c 0.9374,-0.94588 1.764,-1.71979 1.8368,-1.71979 0.073,0 -0.6348,0.77391 -1.5723,1.71979 -0.9374,0.94589 -1.764,1.7198 -1.8367,1.7198 -0.073,0 0.6347,-0.77391 1.5722,-1.7198 z m -33.073,-5.55625 c 0.3418,-0.3638 0.681,-0.66145 0.7537,-0.66145 0.073,0 -0.1473,0.29765 -0.4891,0.66145 -0.3417,0.36381 -0.6809,0.66146 -0.7537,0.66146 -0.073,0 0.1474,-0.29765 0.4891,-0.66146 z m 40.2167,-1.32291 c 0.3418,-0.3638 0.6809,-0.66146 0.7537,-0.66146 0.073,0 -0.1473,0.29766 -0.4891,0.66146 -0.3418,0.3638 -0.6809,0.66146 -0.7537,0.66146 -0.073,0 0.1474,-0.29766 0.4891,-0.66146 z m -36.3802,-2.24896 c 0.2634,-0.29104 0.5384,-0.52917 0.6112,-0.52917 0.073,0 -0.083,0.23813 -0.3466,0.52917 -0.2634,0.29104 -0.5384,0.52917 -0.6112,0.52917 -0.073,0 0.083,-0.23813 0.3466,-0.52917 z m 39.8198,-0.89366 c 0,-0.0549 0.2084,-0.26328 0.463,-0.46302 0.4197,-0.32909 0.429,-0.31975 0.1,0.0999 -0.3456,0.44071 -0.5629,0.58089 -0.5629,0.36311 z m -37.174,-1.48759 c 0.2634,-0.29104 0.5385,-0.52917 0.6112,-0.52917 0.073,0 -0.083,0.23813 -0.3466,0.52917 -0.2634,0.29104 -0.5384,0.52917 -0.6112,0.52917 -0.073,0 0.083,-0.23813 0.3466,-0.52917 z m 39.8198,-0.89366 c 0,-0.0549 0.2084,-0.26328 0.4631,-0.46302 0.4196,-0.32909 0.4289,-0.31975 0.1,0.0999 -0.3457,0.44071 -0.563,0.58089 -0.563,0.36311 z m -37.8354,-0.79375 c 0,-0.0549 0.2084,-0.26328 0.463,-0.46302 0.4197,-0.32909 0.429,-0.31975 0.1,0.0999 -0.3456,0.44071 -0.5629,0.58089 -0.5629,0.36311 z m 40.2167,-1.32291 c 0,-0.0549 0.2083,-0.26329 0.463,-0.46303 0.4197,-0.32908 0.429,-0.31974 0.1,0.0999 -0.3456,0.44072 -0.5629,0.58089 -0.5629,0.36312 z m 2.1166,-1.85209 c 0,-0.0549 0.2084,-0.26328 0.4631,-0.46302 0.4196,-0.32909 0.429,-0.31975 0.1,0.0999 -0.3457,0.44071 -0.563,0.58089 -0.563,0.36311 z m 1.8521,-1.5875 c 0,-0.0549 0.2084,-0.26328 0.4631,-0.46302 0.4196,-0.32909 0.4289,-0.31975 0.1,0.0999 -0.3457,0.44071 -0.563,0.58089 -0.563,0.36311 z m 161.8754,-91.36208 c 0.191,-0.0764 0.4192,-0.067 0.5071,0.0209 0.088,0.0879 -0.068,0.15045 -0.3472,0.13896 -0.3083,-0.0127 -0.3709,-0.0754 -0.1599,-0.15985 z m 28.0459,-5.29167 c 0.191,-0.0764 0.4192,-0.067 0.5071,0.0209 0.088,0.0879 -0.068,0.15045 -0.3473,0.13896 -0.3082,-0.0127 -0.3709,-0.0754 -0.1598,-0.15985 z m 34.925,-2.91041 c 0.191,-0.0764 0.4192,-0.067 0.5071,0.0209 0.088,0.0879 -0.068,0.15045 -0.3473,0.13897 -0.3082,-0.0127 -0.3709,-0.0754 -0.1598,-0.15985 z m -13.4938,-0.26459 c 0.191,-0.0764 0.4192,-0.067 0.5071,0.0209 0.088,0.0879 -0.068,0.15045 -0.3472,0.13896 -0.3083,-0.0127 -0.371,-0.0754 -0.1599,-0.15985 z m 8.4667,-1.05833 c 0.191,-0.0764 0.4192,-0.067 0.5071,0.0209 0.088,0.0879 -0.068,0.15045 -0.3473,0.13896 -0.3082,-0.0127 -0.3709,-0.0754 -0.1598,-0.15985 z m 2.3812,-0.26458 c 0.191,-0.0764 0.4192,-0.067 0.5071,0.0209 0.088,0.0879 -0.068,0.15045 -0.3472,0.13897 -0.3083,-0.0127 -0.3709,-0.0754 -0.1599,-0.15985 z m 12.4354,0 c 0.191,-0.0764 0.4192,-0.067 0.5072,0.0209 0.088,0.0879 -0.068,0.15045 -0.3473,0.13897 -0.3082,-0.0127 -0.3709,-0.0754 -0.1599,-0.15985 z m -10.3352,-0.25908 c 0.1819,-0.0734 0.4795,-0.0734 0.6614,0 0.1819,0.0734 0.033,0.13346 -0.3307,0.13346 -0.3638,0 -0.5127,-0.0601 -0.3307,-0.13346 z m 2.6623,-0.27009 c 0.191,-0.0764 0.4192,-0.067 0.5071,0.0209 0.088,0.0879 -0.068,0.15045 -0.3472,0.13896 -0.3083,-0.0127 -0.3709,-0.0754 -0.1599,-0.15985 z m 2.1002,-0.25907 c 0.1819,-0.0734 0.4795,-0.0734 0.6614,0 0.1819,0.0734 0.033,0.13345 -0.3307,0.13345 -0.3638,0 -0.5127,-0.0601 -0.3307,-0.13345 z m 2.9269,-0.2701 c 0.191,-0.0764 0.4192,-0.067 0.5071,0.0209 0.088,0.0879 -0.068,0.15045 -0.3472,0.13896 -0.3083,-0.0127 -0.371,-0.0754 -0.1599,-0.15985 z m 10.0376,0.006 c 0.1819,-0.0734 0.4796,-0.0734 0.6615,0 0.1819,0.0734 0.033,0.13345 -0.3307,0.13345 -0.3638,0 -0.5127,-0.0601 -0.3308,-0.13345 z m -7.6729,-0.26459 c 0.1819,-0.0734 0.4796,-0.0734 0.6615,0 0.1819,0.0734 0.033,0.13346 -0.3308,0.13346 -0.3638,0 -0.5126,-0.0601 -0.3307,-0.13346 z m 2.927,-0.27009 c 0.191,-0.0764 0.4192,-0.067 0.5071,0.0209 0.088,0.0879 -0.068,0.15046 -0.3473,0.13897 -0.3082,-0.0127 -0.3709,-0.0754 -0.1598,-0.15985 z m 8.9958,0 c 0.191,-0.0764 0.4192,-0.067 0.5071,0.0209 0.088,0.0879 -0.068,0.15046 -0.3472,0.13897 -0.3083,-0.0127 -0.371,-0.0754 -0.1599,-0.15985 z m -6.0854,-0.26459 c 0.191,-0.0764 0.4192,-0.067 0.5071,0.0209 0.088,0.0879 -0.068,0.15045 -0.3473,0.13896 -0.3082,-0.0127 -0.3709,-0.0754 -0.1598,-0.15985 z m 2.8939,-0.25907 c 0.1819,-0.0734 0.4795,-0.0734 0.6614,0 0.1819,0.0734 0.033,0.13346 -0.3307,0.13346 -0.3638,0 -0.5126,-0.0601 -0.3307,-0.13346 z m 3.175,-0.26458 c 0.1819,-0.0734 0.4795,-0.0734 0.6614,0 0.1819,0.0734 0.033,0.13345 -0.3307,0.13345 -0.3638,0 -0.5126,-0.06 -0.3307,-0.13345 z m 3.4396,-0.26458 c 0.1819,-0.0734 0.4795,-0.0734 0.6614,0 0.1819,0.0734 0.033,0.13345 -0.3307,0.13345 -0.3638,0 -0.5127,-0.0601 -0.3307,-0.13345 z m 3.4395,-0.26459 c 0.1819,-0.0734 0.4796,-0.0734 0.6615,0 0.1819,0.0734 0.033,0.13346 -0.3307,0.13346 -0.3638,0 -0.5127,-0.0601 -0.3308,-0.13346 z m 3.9026,-0.0893 c -0.4725,-0.20305 -0.4529,-0.22939 0.1829,-0.24599 0.3915,-0.0102 0.7855,0.10046 0.8755,0.24599 0.1952,0.31587 -0.3233,0.31587 -1.0584,0 z m 3.2064,-0.21379 c -0.073,-0.11758 0.3668,-0.22813 0.9766,-0.24566 0.9193,-0.0264 0.9957,0.006 0.4472,0.18741 -0.8959,0.29703 -1.2668,0.31221 -1.4238,0.0582 z m 2.8129,-0.23318 c 0.2547,-0.0666 0.6714,-0.0666 0.9261,0 0.2546,0.0665 0.046,0.121 -0.4631,0.121 -0.5093,0 -0.7177,-0.0545 -0.463,-0.121 z m 2.2655,-0.26294 c 0.191,-0.0764 0.4192,-0.067 0.5071,0.0209 0.088,0.0879 -0.068,0.15045 -0.3472,0.13896 -0.3083,-0.0127 -0.371,-0.0754 -0.1599,-0.15985 z"
         id="path427" /><path
         style="fill:#ffffff;fill-opacity:1;stroke-width:0.264583"
         d="m 1268.9721,291.55179 -1.3933,-2.17202 1.9632,-1.82197 c 11.1836,-10.37947 18.9909,-16.92947 29.612,-24.84342 27.4759,-20.47261 59.4926,-38.13379 95.1178,-52.46913 51.6661,-20.79015 110.1615,-34.11772 172.9922,-39.41446 7.2638,-0.61235 14.1847,-1.0353 13.0098,-0.79506 -0.291,0.0595 -3.208,0.41569 -6.4823,0.79149 -30.6386,3.51664 -64.2701,10.6907 -95.6468,20.40278 -46.0074,14.24074 -88.8927,34.69766 -124.3542,59.31873 -17.2096,11.94872 -31.2038,23.38549 -46.3021,37.84058 l -5.5562,5.31952 -15.7834,0.007 -15.7834,0.007 -1.3933,-2.17204 z m 312.8267,-121.84281 c 0.4022,-0.0608 0.9975,-0.0592 1.3229,0.004 0.3255,0.0628 0,0.11256 -0.7312,0.11058 -0.7276,-0.002 -0.9938,-0.0534 -0.5917,-0.11419 z"
         id="path425" /><path
         style="fill:#ffffff;fill-opacity:1;stroke-width:0.264583"
         d="m 605.3504,293.53712 c 0.32742,-0.0631 0.8632,-0.0631 1.19063,0 0.32742,0.063 0.0595,0.11464 -0.59532,0.11464 -0.65484,0 -0.92273,-0.0516 -0.59531,-0.11464 z m 74.48021,0.004 c 0.25466,-0.0666 0.67138,-0.0666 0.92604,0 0.25466,0.0665 0.0463,0.121 -0.46302,0.121 -0.50932,0 -0.71768,-0.0545 -0.46302,-0.121 z m 327.02499,0 c 0.2547,-0.0666 0.6714,-0.0666 0.9261,0 0.2546,0.0665 0.046,0.121 -0.4631,0.121 -0.5093,0 -0.7177,-0.0545 -0.463,-0.121 z m 72.3666,-0.005 c 0.3292,-0.0633 0.8054,-0.0609 1.0584,0.005 0.2529,0.0662 -0.016,0.11801 -0.5984,0.11507 -0.5821,-0.003 -0.7891,-0.0571 -0.46,-0.12041 z M 601.78356,293.2759 c 0.25743,-0.0671 0.61462,-0.0627 0.79375,0.01 0.17913,0.0725 -0.0315,0.12734 -0.46806,0.12197 -0.43656,-0.005 -0.58312,-0.0647 -0.32569,-0.13179 z m 81.88351,0.008 c 0.1819,-0.0734 0.47955,-0.0734 0.66146,0 0.1819,0.0734 0.0331,0.13345 -0.33073,0.13345 -0.36381,0 -0.51263,-0.0601 -0.33073,-0.13345 z m 48.87822,-37.79256 c 10e-6,-20.955 0.0314,-29.48842 0.0697,-18.96313 0.0383,10.52528 0.0383,27.67028 -1e-5,38.1 -0.0383,10.42971 -0.0697,1.81813 -0.0697,-19.13687 z m 270.73841,37.79248 c 0.1819,-0.0734 0.4796,-0.0734 0.6615,0 0.1819,0.0734 0.033,0.13345 -0.3307,0.13345 -0.3638,0 -0.5127,-0.0601 -0.3308,-0.13345 z m 79.375,0 c 0.1819,-0.0734 0.4796,-0.0734 0.6615,0 0.1819,0.0734 0.033,0.13345 -0.3307,0.13345 -0.3638,0 -0.5127,-0.0601 -0.3308,-0.13345 z m -482.84801,-0.27009 c 0.19099,-0.0764 0.4192,-0.067 0.50712,0.0209 0.0879,0.0879 -0.0684,0.15047 -0.34727,0.13899 -0.30822,-0.0127 -0.37092,-0.0754 -0.15985,-0.15986 z m 401.63751,0 c 0.191,-0.0764 0.4192,-0.067 0.5071,0.0209 0.088,0.0879 -0.068,0.15047 -0.3473,0.13899 -0.3082,-0.0127 -0.3709,-0.0754 -0.1598,-0.15986 z m 93.7121,-3.88792 c 0,-0.0549 0.2084,-0.26328 0.463,-0.46302 0.4197,-0.32909 0.429,-0.31975 0.1,0.0999 -0.3456,0.44071 -0.5629,0.58089 -0.5629,0.36311 z m 3.4605,-6.93359 c 0.013,-0.30824 0.075,-0.37092 0.1598,-0.15986 0.076,0.191 0.067,0.41921 -0.021,0.50713 -0.088,0.0879 -0.1505,-0.0684 -0.139,-0.34727 z m -111.38963,-1.5875 c 0.0127,-0.30824 0.0754,-0.37092 0.15986,-0.15986 0.0764,0.191 0.067,0.41921 -0.0209,0.50713 -0.0879,0.0879 -0.15047,-0.0684 -0.13898,-0.34727 z m 111.65413,-0.26458 c 0.013,-0.30824 0.075,-0.37092 0.1599,-0.15986 0.076,0.191 0.067,0.4192 -0.021,0.50712 -0.088,0.0879 -0.1505,-0.0684 -0.139,-0.34726 z m -86.2892,-2.16078 -0.9118,-0.99218 0.9378,0.8591 0.9378,0.85908 42.8507,0.0678 42.8507,0.0678 -42.8767,0.0653 -42.8768,0.0653 z m -25.60861,0.19844 c 0,-0.3638 0.0601,-0.51263 0.13346,-0.33073 0.0734,0.1819 0.0734,0.47956 0,0.66146 -0.0734,0.1819 -0.13346,0.0331 -0.13346,-0.33073 z m -286.25956,-0.79375 c 0,-0.50932 0.0544,-0.71768 0.121,-0.46302 0.0666,0.25466 0.0666,0.67138 0,0.92604 -0.0666,0.25466 -0.121,0.0463 -0.121,-0.46302 z m -21.22836,-7.99076 c -0.0726,-4.03111 -0.0407,-7.23786 0.0709,-7.1261 0.11157,0.11176 0.17096,3.40995 0.13198,7.3293 l -0.0709,7.1261 z m 172.50864,4.71586 c 0,-0.0549 0.20836,-0.26329 0.46302,-0.46303 0.41966,-0.32908 0.429,-0.31974 0.0999,0.0999 -0.34565,0.44072 -0.56293,0.58089 -0.56293,0.36312 z m 4.49792,-5.55625 c 0,-0.0549 0.20836,-0.26329 0.46302,-0.46303 0.41966,-0.32908 0.429,-0.31974 0.0999,0.0999 -0.34565,0.44072 -0.56293,0.58089 -0.56293,0.36312 z m 482.86457,-0.52917 c 0,-0.0549 0.2084,-0.26329 0.463,-0.46302 0.4197,-0.32909 0.429,-0.31975 0.1,0.0999 -0.3456,0.44072 -0.5629,0.5809 -0.5629,0.36312 z m 1.5875,-1.32292 c 0,-0.0549 0.2084,-0.26328 0.463,-0.46302 0.4197,-0.32909 0.429,-0.31975 0.1,0.0999 -0.3456,0.44071 -0.5629,0.58089 -0.5629,0.36311 z m 1.5875,-1.32291 c 0,-0.0549 0.2084,-0.26329 0.463,-0.46303 0.4197,-0.32908 0.429,-0.31974 0.1,0.0999 -0.3456,0.44072 -0.5629,0.58089 -0.5629,0.36312 z m -585.78749,-1.09072 c 0.34178,-0.3638 0.68094,-0.66146 0.7537,-0.66146 0.0728,0 -0.14734,0.29766 -0.48911,0.66146 -0.34178,0.3638 -0.68094,0.66146 -0.7537,0.66146 -0.0728,0 0.14734,-0.29766 0.48911,-0.66146 z m 103.1875,0.0324 c 0,-0.0549 0.20836,-0.26328 0.46302,-0.46302 0.41966,-0.32909 0.429,-0.31975 0.0999,0.0999 -0.34565,0.44071 -0.56293,0.58089 -0.56293,0.36311 z m -34.32968,-1.66997 c 0.25466,-0.0666 0.67138,-0.0666 0.92604,0 0.25466,0.0665 0.0463,0.121 -0.46302,0.121 -0.50933,0 -0.71769,-0.0545 -0.46302,-0.121 z m 2.77812,-0.25744 c 0.1819,-0.0734 0.47956,-0.0734 0.66146,0 0.1819,0.0734 0.0331,0.13346 -0.33073,0.13346 -0.3638,0 -0.51263,-0.0601 -0.33073,-0.13346 z m -127.66622,-0.8831 c 0,-0.50932 0.0544,-0.71768 0.121,-0.46302 0.0666,0.25466 0.0666,0.67138 0,0.92604 -0.0666,0.25466 -0.121,0.0463 -0.121,-0.46302 z m -91.80565,-0.97612 c 0.25466,-0.0666 0.67138,-0.0666 0.92604,0 0.25466,0.0665 0.0463,0.12099 -0.46302,0.12099 -0.50933,0 -0.71769,-0.0545 -0.46302,-0.12099 z m -3.3073,-0.25744 c 0.18191,-0.0734 0.47956,-0.0734 0.66146,0 0.1819,0.0734 0.0331,0.13345 -0.33073,0.13345 -0.3638,0 -0.51263,-0.0601 -0.33073,-0.13345 z m -1.83554,-0.27009 c 0.19099,-0.0764 0.4192,-0.067 0.50712,0.0209 0.0879,0.0879 -0.0684,0.15047 -0.34727,0.13899 -0.30822,-0.0127 -0.37092,-0.0754 -0.15985,-0.15986 z m -1.5875,-0.26458 c 0.19099,-0.0764 0.4192,-0.067 0.50712,0.0209 0.0879,0.0879 -0.0684,0.15047 -0.34727,0.13898 -0.30822,-0.0127 -0.37092,-0.0754 -0.15985,-0.15986 z m 305.66423,-0.50277 c 0.0127,-0.30824 0.0754,-0.37092 0.15986,-0.15986 0.0764,0.19101 0.067,0.41921 -0.0209,0.50713 -0.0879,0.0879 -0.15047,-0.0684 -0.13898,-0.34727 z m -207.43332,-0.26458 c 0.0127,-0.30824 0.0754,-0.37092 0.15985,-0.15986 0.0764,0.191 0.067,0.41921 -0.0209,0.50713 -0.0879,0.0879 -0.15046,-0.0684 -0.13897,-0.34727 z m 458.10515,-3.54983 c 0.2634,-0.29105 0.5384,-0.52917 0.6112,-0.52917 0.073,0 -0.083,0.23812 -0.3466,0.52917 -0.2634,0.29104 -0.5384,0.52916 -0.6112,0.52916 -0.073,0 0.083,-0.23812 0.3466,-0.52916 z m -314.4364,-4.38767 c 0.0127,-0.30824 0.0754,-0.37092 0.15985,-0.15986 0.0764,0.191 0.067,0.41921 -0.0209,0.50713 -0.0879,0.0879 -0.15046,-0.0684 -0.13897,-0.34727 z M 696.66405,250.6629 c -0.32911,-0.41966 -0.31975,-0.429 0.0999,-0.0999 0.25466,0.19974 0.46302,0.40809 0.46302,0.46302 0,0.21778 -0.21727,0.0776 -0.56291,-0.36311 z m 147.73263,-1.65365 c 0,-0.50932 0.0545,-0.71768 0.121,-0.46302 0.0666,0.25466 0.0666,0.67138 0,0.92604 -0.0666,0.25466 -0.121,0.0463 -0.121,-0.46302 z m -31.74524,0.34679 c 0.25466,-0.0666 0.67138,-0.0666 0.92604,0 0.25467,0.0665 0.0463,0.121 -0.46302,0.121 -0.50932,0 -0.71768,-0.0545 -0.46302,-0.121 z m -222.82442,-0.50112 c 0.0127,-0.30824 0.0754,-0.37092 0.15985,-0.15986 0.0764,0.191 0.067,0.41921 -0.0209,0.50713 -0.0879,0.0879 -0.15045,-0.0684 -0.13896,-0.34727 z m 225.88367,0.23818 c 0.19099,-0.0764 0.4192,-0.067 0.50712,0.0209 0.0879,0.0879 -0.0684,0.15047 -0.34727,0.13899 -0.30823,-0.0127 -0.37092,-0.0754 -0.15985,-0.15986 z m -226.14826,-1.82568 c 0.0127,-0.30824 0.0754,-0.37092 0.15986,-0.15986 0.0764,0.191 0.067,0.41921 -0.0209,0.50713 -0.0879,0.0879 -0.15045,-0.0684 -0.13897,-0.34727 z m 95.42755,-1.07923 c 0.18191,-0.0734 0.47956,-0.0734 0.66146,0 0.1819,0.0734 0.0331,0.13345 -0.33073,0.13345 -0.3638,0 -0.51263,-0.0601 -0.33073,-0.13345 z m -2.38125,-0.26459 c 0.18191,-0.0734 0.47956,-0.0734 0.66146,0 0.1819,0.0734 0.0331,0.13346 -0.33073,0.13346 -0.3638,0 -0.51263,-0.0601 -0.33073,-0.13346 z m -53.8427,-0.28776 c 9.13143,-0.0386 24.07377,-0.0386 33.2052,0 9.13144,0.0386 1.66026,0.0702 -16.6026,0.0702 -18.26286,0 -25.73404,-0.0316 -16.6026,-0.0702 z m -39.42768,-1.1245 c 0,-0.50933 0.0544,-0.71769 0.121,-0.46303 0.0666,0.25467 0.0666,0.67139 0,0.92605 -0.0666,0.25466 -0.121,0.0463 -0.121,-0.46302 z m 231.7345,-0.15434 c 0.0127,-0.30824 0.0754,-0.37092 0.15985,-0.15986 0.0764,0.19101 0.067,0.41921 -0.0209,0.50713 -0.0879,0.0879 -0.15046,-0.0684 -0.13897,-0.34727 z m -210.39839,-0.30869 c -0.3291,-0.41965 -0.31974,-0.42899 0.0999,-0.0999 0.44073,0.34565 0.58089,0.56293 0.36312,0.56293 -0.0549,0 -0.2633,-0.20836 -0.46302,-0.46303 z m -21.37661,-1.01422 c 0.0127,-0.30824 0.0754,-0.37092 0.15985,-0.15986 0.0764,0.191 0.067,0.4192 -0.0209,0.50712 -0.0879,0.0879 -0.15046,-0.0684 -0.13897,-0.34726 z m 561.64405,-1.63158 c 9.9431,-0.0384 26.1356,-0.0384 35.9833,0 9.8477,0.0384 1.7124,0.0699 -18.0784,0.0699 -19.7909,-2e-5 -27.8481,-0.0314 -17.9049,-0.0699 z m -329.84816,-7.73909 c 0,-0.3638 0.06,-0.51263 0.13345,-0.33073 0.0734,0.1819 0.0734,0.47956 0,0.66146 -0.0734,0.1819 -0.13345,0.0331 -0.13345,-0.33073 z m -231.7411,-1.98438 c 0.002,-0.7276 0.0534,-0.99385 0.11418,-0.59168 0.0608,0.40219 0.0592,0.9975 -0.004,1.32291 -0.0628,0.32544 -0.11256,-0.004 -0.11057,-0.73123 z m 397.64464,-1.32291 c 0.005,-0.43657 0.0647,-0.58312 0.13179,-0.3257 0.0671,0.25743 0.0627,0.61462 -0.01,0.79375 -0.0725,0.17914 -0.12734,-0.0315 -0.12197,-0.46805 z m -229.84219,-0.66146 c 0.26339,-0.29104 0.53842,-0.52917 0.61118,-0.52917 0.0728,0 -0.0832,0.23813 -0.3466,0.52917 -0.26339,0.29104 -0.53842,0.52917 -0.61118,0.52917 -0.0728,0 0.0832,-0.23813 0.3466,-0.52917 z m 87.24693,-0.66146 c 0.003,-0.58208 0.0571,-0.78907 0.12041,-0.45992 0.0633,0.32911 0.0609,0.80536 -0.005,1.05833 -0.0662,0.25294 -0.118,-0.0164 -0.11507,-0.59841 z m 342.03948,0.72792 53.4459,-0.0678 v -7.27474 -7.27475 l -53.4459,-0.0678 -53.4458,-0.0678 h 53.512 53.512 v 7.40834 7.40833 h -53.512 -53.512 l 53.4458,-0.0678 z m -596.85818,-1.12479 c 0,-0.36381 0.0601,-0.51263 0.13346,-0.33073 0.0734,0.1819 0.0734,0.47955 0,0.66145 -0.0734,0.18191 -0.13346,0.0331 -0.13346,-0.33072 z m 22.38655,0.22002 c 0.15375,-0.15377 0.43572,-0.22749 0.6266,-0.16388 0.19816,0.0661 0.0782,0.186 -0.27955,0.27956 -0.44009,0.11509 -0.54339,0.0806 -0.34705,-0.11568 z m 417.04463,0.11303 c 41.0615,-0.18073 70.846,-0.18171 70.7352,-0.003 -0.068,0.10914 -19.4931,0.16965 -43.168,0.13443 -23.675,-0.0352 -36.0802,-0.0946 -27.5672,-0.1321 z m -214.64327,-0.2437 c 0.18191,-0.0734 0.47956,-0.0734 0.66146,0 0.1819,0.0734 0.0331,0.13345 -0.33073,0.13345 -0.3638,0 -0.51263,-0.0601 -0.33073,-0.13345 z m 74.14948,-0.45384 c 0,-0.0549 0.20836,-0.26329 0.46302,-0.46303 0.41966,-0.32908 0.429,-0.31974 0.0999,0.0999 -0.34565,0.44072 -0.56293,0.58089 -0.56293,0.36312 z m 1.05834,-1.32292 c 0,-0.0549 0.20836,-0.26329 0.46302,-0.46302 0.41965,-0.32909 0.42899,-0.31975 0.0999,0.0999 -0.34565,0.44072 -0.56292,0.5809 -0.56292,0.36312 z m 3.43958,-4.23333 c 0,-0.0549 0.20836,-0.26329 0.46302,-0.46303 0.41966,-0.32908 0.429,-0.31974 0.0999,0.0999 -0.34565,0.44072 -0.56293,0.58089 -0.56293,0.36312 z m -198.45753,-1.95062 -0.64143,-0.7276 0.72761,0.64143 c 0.68005,0.59952 0.84894,0.81378 0.64143,0.81378 -0.0474,0 -0.37482,-0.32743 -0.72761,-0.72761 z m -101.31539,-0.7276 c 0.34178,-0.3638 0.68094,-0.66146 0.7537,-0.66146 0.0728,0 -0.14734,0.29766 -0.48911,0.66146 -0.34178,0.3638 -0.68094,0.66146 -0.7537,0.66146 -0.0728,0 0.14734,-0.29766 0.48911,-0.66146 z m 247.49257,0.0661 -0.50403,-0.59531 0.59532,0.50403 c 0.55944,0.47366 0.71576,0.6866 0.50403,0.6866 -0.0502,0 -0.3181,-0.26789 -0.59532,-0.59532 z m 55.71993,-1.62126 c 0,-0.0549 0.20836,-0.26328 0.46302,-0.46302 0.41966,-0.32909 0.429,-0.31975 0.0999,0.0999 -0.34565,0.44071 -0.56293,0.58089 -0.56293,0.36311 z M 602.98569,215.7556 c 0.19099,-0.0764 0.4192,-0.067 0.50712,0.0209 0.0879,0.0879 -0.0684,0.15047 -0.34727,0.13899 -0.30822,-0.0127 -0.37092,-0.0754 -0.15985,-0.15986 z m 1.57096,-0.25908 c 0.1819,-0.0734 0.47956,-0.0734 0.66146,0 0.1819,0.0734 0.0331,0.13345 -0.33073,0.13345 -0.3638,0 -0.51263,-0.0601 -0.33073,-0.13345 z m 77.27487,-0.006 c 0.191,-0.0764 0.4192,-0.067 0.50712,0.0209 0.0879,0.0879 -0.0684,0.15047 -0.34727,0.13899 -0.30822,-0.0127 -0.37092,-0.0754 -0.15985,-0.15986 z m 320.41038,0 c 0.191,-0.0764 0.4192,-0.067 0.5072,0.0209 0.088,0.0879 -0.068,0.15047 -0.3473,0.13899 -0.3082,-0.0127 -0.3709,-0.0754 -0.1599,-0.15986 z m 82.0209,0 c 0.191,-0.0764 0.4192,-0.067 0.5071,0.0209 0.088,0.0879 -0.068,0.15047 -0.3473,0.13899 -0.3082,-0.0127 -0.3709,-0.0754 -0.1598,-0.15986 z m -477.04378,-0.26458 c 0.191,-0.0764 0.4192,-0.067 0.50712,0.0209 0.0879,0.0879 -0.0684,0.15047 -0.34727,0.13899 -0.30822,-0.0127 -0.37092,-0.0754 -0.15985,-0.15986 z m 72.21471,0.006 c 0.18191,-0.0734 0.47956,-0.0734 0.66146,0 0.1819,0.0734 0.0331,0.13345 -0.33073,0.13345 -0.3638,0 -0.51263,-0.0601 -0.33073,-0.13345 z m 147.6375,0 c 0.18191,-0.0734 0.47956,-0.0734 0.66146,0 0.1819,0.0734 0.0331,0.13345 -0.33073,0.13345 -0.3638,0 -0.51263,-0.0601 -0.33073,-0.13345 z m 177.53547,0 c 0.1819,-0.0734 0.4795,-0.0734 0.6614,0 0.1819,0.0734 0.033,0.13345 -0.3307,0.13345 -0.3638,0 -0.5127,-0.0601 -0.3307,-0.13345 z m 77.131,-0.008 c 0.2575,-0.0671 0.6146,-0.0627 0.7938,0.01 0.1791,0.0725 -0.032,0.12735 -0.4681,0.12198 -0.4365,-0.005 -0.5831,-0.0647 -0.3257,-0.13179 z m -453.50084,-0.27956 c 8.69487,-0.0387 22.92284,-0.0387 31.61771,0 8.69487,0.0387 1.58088,0.0704 -15.80886,0.0704 -17.38974,0 -24.50372,-0.0317 -15.80885,-0.0704 z m 129.22808,0 c 11.9576,-0.0381 31.60291,-0.0381 43.65625,0 12.05333,0.0381 2.26984,0.0692 -21.7411,0.0692 -24.01094,3e-5 -33.87276,-0.0311 -21.91515,-0.0692 z m 269.25496,0 c 9.2882,-0.0386 24.4092,-0.0386 33.6021,3e-5 9.1929,0.0386 1.5934,0.0701 -16.8877,0.0701 -18.4812,0 -26.0027,-0.0316 -16.7144,-0.0701 z m 280.6362,-0.0662 c -0.2384,-0.15412 -0.2711,-0.2581 -0.082,-0.26053 0.1733,-0.003 0.3887,0.11501 0.4786,0.26053 0.203,0.32848 0.1114,0.32848 -0.3969,0 z m -407.19372,-0.52916 c -0.23847,-0.15412 -0.27109,-0.25811 -0.0818,-0.26054 0.17331,-0.003 0.3887,0.11501 0.47863,0.26054 0.20302,0.32848 0.11142,0.32848 -0.39687,0 z"
         id="path423" /><path
         style="fill:#ffffff;fill-opacity:1;stroke-width:0.264583"
         d="m 604.0195,293.42406 c -6.03655,-0.43116 -10.78729,-1.78847 -13.55191,-3.8718 -2.27571,-1.71493 -3.8936,-4.64183 -4.74461,-8.58348 -0.13164,-0.60971 -0.007,-0.8168 0.83502,-1.38907 l 0.98972,-0.67254 h 45.29173 45.29174 l 0.81663,-1.11046 0.81664,-1.11045 -0.005,-7.02548 -0.005,-7.02549 -1.01791,-0.84489 -1.0179,-0.84489 -35.42368,-0.10893 c -31.43294,-0.0967 -35.70687,-0.1582 -37.93724,-0.54631 -7.57596,-1.31832 -10.9524,-3.28102 -13.04464,-7.58272 -1.45605,-2.99371 -1.82388,-5.55358 -1.88106,-13.09101 -0.0949,-12.51021 0.64363,-16.04107 4.07504,-19.48225 1.75414,-1.7591 3.38388,-2.63982 6.54632,-3.53769 4.87538,-1.38416 5.15384,-1.3934 43.1042,-1.42676 38.31361,-0.0337 38.57867,-0.0249 43.64383,1.4429 1.28456,0.37225 3.17344,1.11207 4.1975,1.64404 2.28907,1.18909 4.99882,3.83069 6.13137,5.97718 l 0.81823,1.55072 -0.55946,1.42531 -0.55945,1.42529 h -42.28484 -42.28484 l -0.90839,0.69286 -0.90839,0.69287 v 6.92634 6.92637 l 1.00137,0.97782 1.00138,0.97782 34.78352,0.022 c 27.46118,0.0175 35.36835,0.0968 37.56165,0.37751 9.77415,1.25079 14.03974,4.52368 15.51912,11.90746 0.69902,3.4889 0.70803,19.80407 0.0128,23.15104 -0.50793,2.44528 -1.86003,5.47122 -3.02854,6.77776 -2.75156,3.07657 -7.60006,4.78194 -15.2815,5.37498 -3.76633,0.29078 -73.89885,0.2754 -77.99392,-0.0172 z m 128.66264,-37.86637 10e-4,-38.16615 1.45599,-1.12448 1.45599,-1.12447 h 45.17581 c 31.19339,0 45.91284,0.0907 47.55707,0.29141 3.28982,0.40156 7.08051,1.39782 9.12812,2.39905 2.16708,1.05963 4.69033,3.53695 5.61303,5.51088 1.26363,2.70327 1.35896,3.81235 1.35309,15.74271 -0.005,9.38813 -0.0729,11.38999 -0.43983,12.90079 -1.46198,6.01916 -5.60293,9.03015 -14.5049,10.5469 -1.46679,0.2499 -10.4059,0.35409 -36.45738,0.42495 l -34.51411,0.0938 -1.13849,0.9329 -1.13849,0.93292 v 14.40206 14.40209 h -11.77396 -11.77396 l 0.001,-38.16614 z m 84.65837,-6.64774 c 1.76143,-0.59041 3.27665,-2.02231 3.68093,-3.47853 0.39803,-1.43372 0.38826,-11.528 -0.0125,-12.86544 -0.40819,-1.36245 -1.74635,-2.69642 -3.31339,-3.30308 -1.21076,-0.46874 -2.71185,-0.49679 -30.3161,-0.56658 l -29.04227,-0.0734 -1.05409,0.97528 -1.05408,0.97528 v 8.21664 8.21663 l 1.25662,1.27579 1.25662,1.27583 28.57515,-0.0815 c 26.88735,-0.0767 28.66067,-0.11015 30.02307,-0.56685 z m 110.00905,37.58139 c -5.15625,-7.14729 -5.2419,-7.24778 -7.27276,-8.53281 l -2.05505,-1.30032 -33.75199,-0.13229 -33.752,-0.13229 5.26981,-6.48229 c 2.89841,-3.56526 5.43867,-6.72042 5.64508,-7.01146 0.36896,-0.52033 0.75363,-0.53139 23.0216,-0.66146 l 22.64635,-0.13229 0.51681,-1.38549 0.51679,-1.38549 -2.4134,-3.5093 c -2.10847,-3.06592 -5.69278,-8.32726 -15.4927,-22.74163 l -2.46245,-3.62191 6.07232,-7.49059 c 3.33978,-4.11983 6.1704,-7.52422 6.29028,-7.56534 0.11988,-0.0411 13.23475,17.40157 29.14414,38.76146 15.9094,21.35992 29.21717,39.22316 29.57283,39.6961 l 0.64664,0.8599 h -13.46229 -13.46232 z m 79.57224,7.05319 c -7.13395,-0.42291 -12.25404,-1.85542 -15.16903,-4.24405 -2.3753,-1.94638 -3.94655,-5.37499 -4.52051,-9.86414 -0.1501,-1.17388 -0.22717,-11.9266 -0.18868,-26.32605 0.0724,-27.08412 0.0124,-26.13316 1.88606,-29.94083 1.99011,-4.0445 5.41097,-6.14185 12.12456,-7.43363 1.8892,-0.36353 7.0084,-0.4296 40.3957,-0.52136 27.1091,-0.0745 39.1175,-0.0182 41.275,0.19302 8.3337,0.81647 12.9095,3.0318 15.1455,7.3325 0.8548,1.64417 1.7878,4.62653 1.7878,5.71482 0,0.41658 -2.8383,0.44611 -42.8964,0.44611 h -42.8965 l -1.4212,0.81317 -1.4213,0.81317 v 23.07542 23.07543 l 1.2658,1.24682 1.2659,1.24682 h 42.7526 42.7525 l -0.1187,1.12448 c -0.1989,1.88341 -0.8258,4.3424 -1.4476,5.67825 -0.8272,1.77702 -3.1797,4.04617 -5.2434,5.05748 -2.1898,1.0731 -6.6473,2.06555 -10.7156,2.38575 -2.789,0.21953 -71.0905,0.3356 -74.6125,0.12682 z m 126.0739,-25.88215 v -26.06146 h 35.8511 35.851 v 6.61458 6.61459 h -22.6038 -22.6038 l -1.1918,0.99218 -1.1919,0.99219 -0.017,10.74989 -0.017,10.74991 1.2497,1.02405 1.2497,1.02407 39.5623,0.0138 39.5622,0.0137 0.071,6.66711 0.071,6.6671 h -52.9212 -52.9212 v -26.06146 z m 224.1021,14.14102 c -8.9495,-6.54674 -16.6613,-12.20544 -17.1374,-12.57485 l -0.8655,-0.67164 3.5113,-2.93182 c 3.8167,-3.18673 8.4838,-6.84964 13.3894,-10.50849 l 3.1274,-2.33254 5.4036,3.95158 c 2.9719,2.17337 6.0583,4.43841 6.8587,5.03343 0.8004,0.59503 8.599,6.32278 17.3302,12.72837 20.2605,14.86389 21.5635,15.82997 21.5635,15.9871 0,0.0717 -0.3139,0.82992 -0.6976,1.68487 l -0.6975,1.55443 -17.7571,-0.009 -17.7571,-0.009 -16.2719,-11.9032 z m -50.1792,-36.72826 c -1.3321,-0.96494 -6.1541,-4.48847 -10.7157,-7.83006 -4.5615,-3.3416 -12.2519,-8.97315 -17.0898,-12.51458 l -8.7961,-6.43898 0.5625,-1.11143 c 0.3093,-0.61132 0.7724,-1.40981 1.029,-1.77443 l 0.4666,-0.66297 17.4244,0.006 c 10.1569,0.004 17.5899,0.10817 17.8212,0.25035 0.4122,0.25334 19.697,14.37863 23.4156,17.1509 1.1642,0.86792 2.1472,1.65495 2.1845,1.74895 0.037,0.094 -1.2128,0.80434 -2.7781,1.57848 -3.9249,1.94109 -11.6069,6.03356 -16.2074,8.63415 -2.1101,1.19279 -4.0746,2.29222 -4.3656,2.44316 -0.446,0.2313 -0.9101,-0.003 -2.9511,-1.47997 z m -173.9229,-22.65651 v -7.27604 h 53.4458 53.4459 v 7.27604 7.27604 h -53.4459 -53.4458 z"
         id="path421" /></g></g></svg>
